<?xml version="1.0" encoding="UTF-8"?>
<svg version="1.1" xmlns="http://www.w3.org/2000/svg" width="568" height="138">
<path d="M0 0 C187.44 0 374.88 0 568 0 C568 45.54 568 91.08 568 138 C380.56 138 193.12 138 0 138 C0 92.46 0 46.92 0 0 Z " fill="#FDFCFC" transform="translate(0,0)"/>
<path d="M0 0 C1.0657252 -0.00445784 2.13145041 -0.00891569 3.22947031 -0.01350862 C4.40454077 -0.01332426 5.57961123 -0.01313989 6.79028988 -0.01294994 C8.65790184 -0.01846498 8.65790184 -0.01846498 10.56324333 -0.02409142 C14.026054 -0.03322166 17.48881727 -0.03782871 20.95163548 -0.04048073 C24.68392272 -0.04438297 28.41619622 -0.05396147 32.14847469 -0.0626936 C41.16625799 -0.08246193 50.18404242 -0.09252541 59.20184198 -0.10142139 C63.44883367 -0.10580433 67.69582412 -0.11117118 71.94281483 -0.11641026 C86.06203515 -0.13342411 100.1812547 -0.1479176 114.3004837 -0.155159 C117.96504944 -0.15706889 121.62961516 -0.15898922 125.29418087 -0.16094494 C126.66039364 -0.16167055 126.66039364 -0.16167055 128.05420666 -0.16241082 C142.80391252 -0.17070851 157.55353721 -0.19604032 172.30320764 -0.22852562 C187.44777873 -0.26160853 202.59230859 -0.27960894 217.73691601 -0.28280324 C226.2394342 -0.28496737 234.74183409 -0.29370158 243.24431705 -0.31926441 C250.48670281 -0.34098839 257.72894152 -0.34901357 264.97135616 -0.33929763 C268.66479183 -0.33475759 272.35792423 -0.33662142 276.05131817 -0.35605907 C280.06128232 -0.37697986 284.07057606 -0.36669041 288.08057308 -0.35352612 C289.24002849 -0.36449536 290.39948389 -0.37546461 291.59407431 -0.38676625 C301.58524488 -0.30767512 309.81192237 2.09082502 317.13745785 9.12764454 C324.45538673 17.55501274 324.61240435 26.6817569 324.50878048 37.32562733 C324.50961106 38.88161351 324.51207756 40.43759959 324.51608944 41.99358082 C324.51893274 45.23889354 324.50439024 48.4835105 324.47679806 51.7287035 C324.44268838 55.86666543 324.44875658 60.00338726 324.46746063 64.14140892 C324.47808044 67.34930541 324.46904846 70.55691843 324.45407581 73.76478863 C324.44893189 75.28964805 324.44932922 76.81453754 324.45562077 78.33939266 C324.48572356 90.01405905 323.0987135 98.51446281 314.87987423 107.13422108 C307.6997961 113.93640036 299.62463409 113.42473166 290.27170467 113.39491749 C288.99997231 113.39874304 287.72823995 113.40256858 286.41797024 113.40651006 C282.89944871 113.41677734 279.38102921 113.41461152 275.86249936 113.41032946 C272.06355166 113.40786 268.26462838 113.41687901 264.46568966 113.42436695 C257.02834668 113.43710882 249.59103982 113.43890837 242.15368777 113.43656669 C236.1093746 113.43478318 230.06507239 113.43653387 224.02076054 113.44079113 C223.16030396 113.44138632 222.29984738 113.44198151 221.41331636 113.44259473 C219.66529448 113.44380649 217.91727261 113.44502062 216.16925073 113.44623711 C199.78155723 113.45711019 183.39388431 113.45495096 167.00618965 113.44885226 C152.01155404 113.44368052 137.01698333 113.45494574 122.02236056 113.47395048 C106.62455485 113.49331667 91.22677988 113.50158721 75.82896191 113.49782723 C67.18469612 113.49591369 58.54048561 113.49841785 49.89622974 113.51254177 C42.53928546 113.52444083 35.18243052 113.5258769 27.82548504 113.5137516 C24.07181607 113.50785317 20.31831063 113.50679007 16.56465244 113.51875401 C12.49665804 113.5315693 8.4290547 113.52117175 4.36106014 113.50844288 C3.17322711 113.51581716 1.98539408 113.52319145 0.7615661 113.5307892 C-8.33087569 113.47072765 -13.5597969 111.16620463 -20.28809452 105.10687733 C-25.50101433 99.49381868 -27.23427868 92.92978301 -27.31299686 85.43475819 C-27.32117435 84.75787952 -27.32935184 84.08100086 -27.33777714 83.38361073 C-27.36258953 81.1429376 -27.37914195 78.90232795 -27.39356327 76.66156483 C-27.39888695 75.89348562 -27.40421062 75.12540642 -27.40969563 74.33405209 C-27.43641714 70.26362704 -27.4557898 66.19323247 -27.47022343 62.12274647 C-27.48352636 58.76764917 -27.51131165 55.41316533 -27.55225468 52.05829334 C-27.60182612 47.9958077 -27.62637484 43.93387554 -27.63345051 39.87110043 C-27.64012517 38.33025094 -27.65524757 36.78941195 -27.67934132 35.24873638 C-27.8457922 23.95500792 -26.47907245 15.76842159 -18.74512577 7.19672108 C-13.49324613 2.32325198 -7.13930023 0.01383446 0 0 Z " fill="#CE3B2B" transform="translate(33.12012577056885,18.865778923034668)"/>
<path d="M0 0 C1.65 0.33 3.3 0.66 5 1 C5.875 3 5.875 3 6 6 C4.79682605 8.01638638 3.36219852 9.74688322 1.8828125 11.5703125 C-4.13069342 19.33047989 -8.83702437 28.13366247 -13 37 C-12.443125 36.3709375 -11.88625 35.741875 -11.3125 35.09375 C3.38592751 18.60767591 3.38592751 18.60767591 10 15 C11.32 15 12.64 15 14 15 C14.495 17.97 14.495 17.97 15 21 C14.195625 21.350625 13.39125 21.70125 12.5625 22.0625 C8.64610283 23.99272432 5.41518737 26.72228185 2.05078125 29.4765625 C0 31 0 31 -3 32 C-1.48134786 36.29888613 -1.48134786 36.29888613 1 40 C5.25717387 40.17738224 7.10685691 39.78519699 10.359375 36.92578125 C11.93098631 35.28997013 13.47402755 33.62613347 14.984375 31.93359375 C17 30 17 30 20 30 C19.52056726 34.33573955 16.71724595 36.94609744 13.875 40 C13.41351563 40.52078125 12.95203125 41.0415625 12.4765625 41.578125 C9.01876458 45.33990516 5.60074465 47.75350056 1 50 C-2.25 50.0625 -2.25 50.0625 -5 49 C-6.75 46.625 -6.75 46.625 -8 44 C-8.66 43.01 -9.32 42.02 -10 41 C-13.96 45.455 -13.96 45.455 -18 50 C-22 49 -22 49 -24 47 C-24.625 44.375 -24.625 44.375 -25 42 C-25.53109375 42.40992188 -26.0621875 42.81984375 -26.609375 43.2421875 C-27.31578125 43.78101563 -28.0221875 44.31984375 -28.75 44.875 C-29.44609375 45.40867188 -30.1421875 45.94234375 -30.859375 46.4921875 C-34.98563821 49.39864297 -37.86475588 50.55817871 -43 50 C-45.46787245 46.29819133 -45.24907951 44.73702125 -44.6796875 40.48046875 C-43.46093039 36.03270574 -40.77781571 32.61392442 -38 29 C-37.44054687 28.25363281 -36.88109375 27.50726563 -36.3046875 26.73828125 C-35.87414062 26.16464844 -35.44359375 25.59101562 -35 25 C-37.2513245 24.45280004 -37.2513245 24.45280004 -40 25 C-42.16282249 27.12404084 -43.95602534 29.1342986 -45.8125 31.5 C-46.87143993 32.78961782 -47.93263566 34.0773867 -48.99609375 35.36328125 C-49.50897949 35.98928223 -50.02186523 36.6152832 -50.55029297 37.26025391 C-55.54863418 43.25860006 -60.63860708 49.26890097 -68.75 50.375 C-69.86375 50.189375 -69.86375 50.189375 -71 50 C-73.4294516 46.3558226 -73.16179575 44.28758728 -73 40 C-73.45890625 40.55429688 -73.9178125 41.10859375 -74.390625 41.6796875 C-75.00421875 42.40414062 -75.6178125 43.12859375 -76.25 43.875 C-76.85328125 44.59429687 -77.4565625 45.31359375 -78.078125 46.0546875 C-80.92184964 48.93309171 -83.06270496 49.88522918 -87.0625 50.375 C-90 50 -90 50 -91.6796875 48.265625 C-94.03942024 44.21637946 -93.13953409 40.3944464 -92 36 C-87.66587839 26.675486 -81.30516725 18.64460321 -72 14 C-67.93146609 13.3997245 -66.05846305 13.34863812 -62.5625 15.5 C-62.046875 15.995 -61.53125 16.49 -61 17 C-60.34 16.34 -59.68 15.68 -59 15 C-56.5 15.125 -56.5 15.125 -54 16 C-52.84375 18.0546875 -52.84375 18.0546875 -52 20 C-52.38671875 20.556875 -52.7734375 21.11375 -53.171875 21.6875 C-57.58333672 28.15182014 -61.64184191 34.20067629 -63 42 C-56.09570412 36.93496327 -49.24037201 31.58803411 -45 24 C-44.68471257 21.54776443 -44.78813874 19.43731365 -45.02734375 16.984375 C-45 15 -45 15 -42.875 11.9375 C-39.57683856 9.71482599 -37.89503578 9.54708886 -34 10 C-34.33 12.31 -34.66 14.62 -35 17 C-34.22914063 16.90460937 -33.45828125 16.80921875 -32.6640625 16.7109375 C-31.66117187 16.60007812 -30.65828125 16.48921875 -29.625 16.375 C-28.62726563 16.25898437 -27.62953125 16.14296875 -26.6015625 16.0234375 C-25.74304688 16.01570313 -24.88453125 16.00796875 -24 16 C-23.01 16.99 -23.01 16.99 -22 18 C-22.26466652 22.67930411 -25.98818999 26.41511158 -28.67382812 30.046875 C-31.21706055 33.58167765 -32.83988694 36.80330684 -34 41 C-24.40722394 36.9609364 -19.72712974 31.00606809 -15.375 21.71484375 C-11.34759805 13.76301319 -5.98008669 6.57809536 0 0 Z " fill="#FBF2F0" transform="translate(310,44)"/>
<path d="M0 0 C-0.33 2.31 -0.66 4.62 -1 7 C2.63 6.67 6.26 6.34 10 6 C10.66 7.65 11.32 9.3 12 11 C11.46890625 11.64066406 10.9378125 12.28132813 10.390625 12.94140625 C2.98325807 21.55826006 2.98325807 21.55826006 -1 32 C0.051875 31.4225 1.10375 30.845 2.1875 30.25 C2.77917969 29.92515625 3.37085937 29.6003125 3.98046875 29.265625 C9.51745765 25.79563583 12.64509318 21.94038489 16.0625 16.5 C21.48013022 7.9545802 21.48013022 7.9545802 25 5 C27.125 5 27.125 5 29 6 C30.34765625 7.67578125 30.34765625 7.67578125 31 10 C29.55078125 12.91796875 29.55078125 12.91796875 27.3125 16.1875 C23.9117177 21.32282661 21.61450437 26.04651515 20 32 C26.16472079 27.61619855 30.82320669 23.29699296 35 17 C36.00933594 15.48019531 36.00933594 15.48019531 37.0390625 13.9296875 C38.42490647 11.83832296 39.80190171 9.74105476 41.16796875 7.63671875 C42.66193394 5.48655563 44.07154369 3.74934272 46 2 C48.475 2.99 48.475 2.99 51 4 C50.67 5.65 50.34 7.3 50 9 C51.72467275 9 52.83324125 7.50044947 54.125 6.4375 C57.16141835 4.22122764 57.82479985 3.99712787 61.8125 4.0625 C65 5 65 5 67 7 C68.06393389 15.24548768 65.50646208 21.12876079 61 28 C55.44753408 34.72860403 50.13039748 40.16403671 41.25 41.375 C39 41 39 41 37.1875 39.6875 C36 38 36 38 36 35 C35.34 35 34.68 35 34 35 C31.70438191 41.59379663 29.77910928 48.24947898 28 55 C24.77276945 54.44358094 22.95693265 53.68309005 21 51 C20.49005046 45.27969645 22.53172956 40.04385699 25 35 C24.22076172 35.54140625 24.22076172 35.54140625 23.42578125 36.09375 C17.72026932 39.8903938 17.72026932 39.8903938 14.125 40.4375 C12 40 12 40 10 38 C9.60235737 36.01178687 9.26224651 34.01055661 9 32 C8.48050781 32.40992188 7.96101563 32.81984375 7.42578125 33.2421875 C-2.26318775 40.72830403 -2.26318775 40.72830403 -9 40 C-11 38 -11 38 -11.5625 34.0625 C-11.43481339 26.17146774 -5.56193074 20.02174858 -1 14 C-3.83000856 13.95382909 -3.83000856 13.95382909 -7 15 C-8.50760313 16.74211918 -9.66098274 18.51721107 -10.82421875 20.50390625 C-11.21222656 20.99761719 -11.60023437 21.49132812 -12 22 C-12.99 22 -13.98 22 -15 22 C-14.6041485 19.14986919 -14.34375573 17.39875665 -12.4375 15.1875 C-10.57282209 12.34994665 -11.07144244 10.25861884 -11.21875 6.96875 C-11 5 -11 5 -8.625 2.0625 C-5.13641006 -0.67853495 -4.17359033 -1.2520771 0 0 Z " fill="#FBF4F2" transform="translate(73,54)"/>
<path d="M0 0 C2.64 0 5.28 0 8 0 C8 15.84 8 31.68 8 48 C5.36 48 2.72 48 0 48 C0 46.68 0 45.36 0 44 C-0.66 44 -1.32 44 -2 44 C-2.28875 44.639375 -2.5775 45.27875 -2.875 45.9375 C-4 48 -4 48 -6 49 C-10.40889117 49.56912157 -15.01295566 50.12820396 -18.98828125 47.87109375 C-23.16218206 43.90433442 -24.81917047 39.88934141 -25.1796875 34.12890625 C-25.35732099 26.06631935 -24.47953179 21.16447327 -19 15 C-16.47101435 13.73550718 -14.57519546 13.76083158 -11.75 13.6875 C-10.81671875 13.65011719 -9.8834375 13.61273438 -8.921875 13.57421875 C-6 14 -6 14 0 18 C0 12.06 0 6.12 0 0 Z " fill="#1F4E80" transform="translate(486,47)"/>
<path d="M0 0 C3.3125 0.125 3.3125 0.125 6 1 C5.32902328 5.19360449 3.1441606 8.40334352 1 12 C1.680625 11.113125 2.36125 10.22625 3.0625 9.3125 C5.93314134 5.91624828 8.91208077 2.87471455 13 1 C19.1 1.1 19.1 1.1 22 4 C23.06393389 12.24548768 20.50646208 18.12876079 16 25 C10.44753408 31.72860403 5.13039748 37.16403671 -3.75 38.375 C-6 38 -6 38 -7.8125 36.6875 C-9 35 -9 35 -9 32 C-9.66 32 -10.32 32 -11 32 C-11.14042725 32.57975586 -11.28085449 33.15951172 -11.42553711 33.75683594 C-11.95548679 35.8261847 -12.55063139 37.85328956 -13.19140625 39.890625 C-13.41376953 40.59960938 -13.63613281 41.30859375 -13.86523438 42.0390625 C-14.09533203 42.76867187 -14.32542969 43.49828125 -14.5625 44.25 C-14.91344727 45.36761719 -14.91344727 45.36761719 -15.27148438 46.5078125 C-15.84662313 48.33886649 -16.4231725 50.1694773 -17 52 C-19.56630083 51.45804827 -20.82007286 51.16131398 -22.8125 49.375 C-24.53021758 45.93956484 -23.73953068 43.73597106 -23 40 C-22.1182848 37.47962542 -21.20778722 35.11528787 -20.125 32.6875 C-19.67568115 31.67067139 -19.67568115 31.67067139 -19.21728516 30.63330078 C-14.3263488 19.95973723 -8.18197081 8.51895478 0 0 Z " fill="#FAF0ED" transform="translate(197,57)"/>
<path d="M0 0 C2.64 0 5.28 0 8 0 C8.33 0.99 8.66 1.98 9 3 C9.55945313 2.51402344 10.11890625 2.02804688 10.6953125 1.52734375 C14.55366461 -1.02963197 18.52976304 -0.66772407 23 0 C25.40566065 1.09391262 26.95563557 2.27842995 29 4 C29.61875 3.34 30.2375 2.68 30.875 2 C35.22837426 -0.78615952 38.95447256 -0.84506371 44 0 C46.93423195 1.79646854 48.47205355 2.9441071 50 6 C50.08559118 8.17824961 50.10713412 10.35915255 50.09765625 12.5390625 C50.09443359 13.84101562 50.09121094 15.14296875 50.08789062 16.484375 C50.07953466 17.86458399 50.07106971 19.24479232 50.0625 20.625 C50.05748501 22.01301926 50.0529221 23.40104022 50.04882812 24.7890625 C50.03700976 28.19275132 50.02053434 31.59635439 50 35 C47.03 35 44.06 35 41 35 C40.97494385 34.21761963 40.9498877 33.43523926 40.92407227 32.62915039 C40.80850212 29.10675051 40.68560051 25.5846444 40.5625 22.0625 C40.52318359 20.83080078 40.48386719 19.59910156 40.44335938 18.33007812 C40.40146484 17.16025391 40.35957031 15.99042969 40.31640625 14.78515625 C40.26141968 13.15912476 40.26141968 13.15912476 40.20532227 11.50024414 C40.27635735 9.060737 40.27635735 9.060737 39 8 C36.32941149 7.85884839 33.67567762 7.95752893 31 8 C29.98412022 11.04763934 29.80195594 13.34718967 29.68359375 16.54296875 C29.64169922 17.61611328 29.59980469 18.68925781 29.55664062 19.79492188 C29.51732422 20.91447266 29.47800781 22.03402344 29.4375 23.1875 C29.39431641 24.31865234 29.35113281 25.44980469 29.30664062 26.61523438 C29.20050901 29.41003354 29.09845615 32.20492162 29 35 C26.03 35 23.06 35 20 35 C19.97494385 34.21761963 19.9498877 33.43523926 19.92407227 32.62915039 C19.80850212 29.10675051 19.68560051 25.5846444 19.5625 22.0625 C19.52318359 20.83080078 19.48386719 19.59910156 19.44335938 18.33007812 C19.40146484 17.16025391 19.35957031 15.99042969 19.31640625 14.78515625 C19.27974854 13.70113525 19.24309082 12.61711426 19.20532227 11.50024414 C19.27635735 9.060737 19.27635735 9.060737 18 8 C13.92915632 7.56473267 13.92915632 7.56473267 10.33666992 9.18286133 C8.53937233 11.62620123 8.57161074 13.30769129 8.48828125 16.32421875 C8.45283203 17.35224609 8.41738281 18.38027344 8.38085938 19.43945312 C8.34702148 21.04723633 8.34702148 21.04723633 8.3125 22.6875 C8.27833984 23.77095703 8.24417969 24.85441406 8.20898438 25.97070312 C8.1264544 28.6470322 8.05732063 31.32303159 8 34 C5.36 34 2.72 34 0 34 C0 22.78 0 11.56 0 0 Z " fill="#225182" transform="translate(366,61)"/>
<path d="M0 0 C2.79521057 2.21972604 4.01422133 3.87512309 4.5 7.4375 C3.8931895 12.69652437 1.83028044 16.33202068 -2.3125 19.625 C-5.05308234 20.76133902 -6.93877537 20.9391764 -9.875 20.6875 C-9.875 16.6875 -9.875 16.6875 -7.9375 14.3125 C-5.60901428 11.34897272 -5.21927947 9.38850434 -4.875 5.6875 C-11.28905269 6.20062422 -15.20035599 8.01285599 -19.75 12.5625 C-21.61707819 16.08920325 -21.33271103 19.18953662 -20.1875 22.9375 C-18.41925471 25.29516038 -16.61669089 25.66733595 -13.875 26.6875 C-9.16071429 30.11607143 -9.16071429 30.11607143 -7.875 32.6875 C-7.45454615 36.80309631 -7.45471303 40.53171083 -8.875 44.4375 C-12.55989186 48.58300335 -16.15272666 51.29173472 -21.75 52.10546875 C-28.0409563 52.27397651 -34.29889351 51.8233231 -39.875 48.6875 C-42.89736296 45.44398853 -43.76052991 43.50309937 -44.375 39.125 C-43.79298916 35.12367546 -42.79830971 33.44376344 -39.875 30.6875 C-38.885 30.6875 -37.895 30.6875 -36.875 30.6875 C-36.483125 31.925 -36.09125 33.1625 -35.6875 34.4375 C-33.93979229 39.13966599 -31.35651424 41.44674288 -26.875 43.6875 C-22.63528942 43.92303948 -19.51321698 44.01595886 -15.875 41.6875 C-15.96575946 39.29549437 -15.96575946 39.29549437 -16.875 36.6875 C-19.25004254 34.77744053 -19.25004254 34.77744053 -22.1875 33.25 C-26.64280748 30.56524329 -29.75975858 28.62306331 -31.875 23.6875 C-32.73271116 18.45546192 -32.17300993 15.59628387 -29.4375 11.0625 C-23.01516795 2.27164833 -10.81658277 -4.93800518 0 0 Z " fill="#FBF3F1" transform="translate(182.875,44.3125)"/>
<path d="M0 0 C2.475 0.495 2.475 0.495 5 1 C5.875 3 5.875 3 6 6 C4.79682605 8.01638638 3.36219852 9.74688322 1.8828125 11.5703125 C-4.13069342 19.33047989 -8.83702437 28.13366247 -13 37 C-12.443125 36.3709375 -11.88625 35.741875 -11.3125 35.09375 C3.38592751 18.60767591 3.38592751 18.60767591 10 15 C11.32 15 12.64 15 14 15 C14.495 17.97 14.495 17.97 15 21 C14.195625 21.350625 13.39125 21.70125 12.5625 22.0625 C8.64610283 23.99272432 5.41518737 26.72228185 2.05078125 29.4765625 C0 31 0 31 -3 32 C-1.48134786 36.29888613 -1.48134786 36.29888613 1 40 C5.25717387 40.17738224 7.10685691 39.78519699 10.359375 36.92578125 C11.93098631 35.28997013 13.47402755 33.62613347 14.984375 31.93359375 C17 30 17 30 20 30 C19.52056726 34.33573955 16.71724595 36.94609744 13.875 40 C13.41351563 40.52078125 12.95203125 41.0415625 12.4765625 41.578125 C9.01876458 45.33990516 5.60074465 47.75350056 1 50 C-2.25 50.0625 -2.25 50.0625 -5 49 C-6.75 46.625 -6.75 46.625 -8 44 C-8.66 43.01 -9.32 42.02 -10 41 C-13.96 45.455 -13.96 45.455 -18 50 C-22 49 -22 49 -23 48 C-23.14115161 45.32941149 -23.04247107 42.67567762 -23 40 C-23.99 39.67 -24.98 39.34 -26 39 C-25.61328125 38.59910156 -25.2265625 38.19820312 -24.828125 37.78515625 C-22.00430248 34.70271632 -19.7729231 31.88613011 -18.1875 28 C-13.97299028 17.76225348 -7.80798093 7.85819303 0 0 Z " fill="#FBF1EF" transform="translate(310,44)"/>
<path d="M0 0 C1.01900391 0.97646484 1.01900391 0.97646484 2.05859375 1.97265625 C1.72859375 2.96265625 1.39859375 3.95265625 1.05859375 4.97265625 C-6.20140625 5.63265625 -13.46140625 6.29265625 -20.94140625 6.97265625 C-21.27140625 8.62265625 -21.60140625 10.27265625 -21.94140625 11.97265625 C-23.25390625 14.0859375 -23.25390625 14.0859375 -24.94140625 16.28515625 C-32.28779258 26.40347804 -40.11056248 38.66937372 -42.94140625 50.97265625 C-45.31640625 51.16015625 -45.31640625 51.16015625 -47.94140625 50.97265625 C-50.51498413 47.11228943 -50.81178685 44.41975714 -49.94140625 39.97265625 C-45.30111945 28.16892671 -37.89802438 17.76127223 -29.94140625 7.97265625 C-32.17150879 8.59430865 -34.40045321 9.22011655 -36.62890625 9.84765625 C-37.87027344 10.19570313 -39.11164062 10.54375 -40.390625 10.90234375 C-43.85493137 11.884965 -43.85493137 11.884965 -46.7578125 13.125 C-49.30509735 14.11383866 -50.43061856 13.95903713 -52.94140625 12.97265625 C-53.94140625 11.97265625 -53.94140625 11.97265625 -54.25390625 9.59765625 C-53.94140625 6.97265625 -53.94140625 6.97265625 -52.203125 5.40234375 C-41.97501513 -1.06309358 -10.46465519 -7.21269063 0 0 Z " fill="#FBF3F1" transform="translate(79.94140625,45.02734375)"/>
<path d="M0 0 C2.80878816 2.29809941 3.88020504 4.37821462 4.38134766 7.97753906 C4.428479 9.2029541 4.428479 9.2029541 4.4765625 10.453125 C4.51523437 11.34257813 4.55390625 12.23203125 4.59375 13.1484375 C4.6246875 14.06882812 4.655625 14.98921875 4.6875 15.9375 C4.72617187 16.87335938 4.76484375 17.80921875 4.8046875 18.7734375 C4.89874844 21.07793054 4.98439399 23.38242013 5.0625 25.6875 C6.0525 26.0175 7.0425 26.3475 8.0625 26.6875 C8.10504356 28.68704746 8.10330783 30.68791636 8.0625 32.6875 C7.0625 33.6875 7.0625 33.6875 3.6875 33.9375 C0.0625 33.6875 0.0625 33.6875 -1.875 32.3125 C-2.9375 30.6875 -2.9375 30.6875 -2.9375 28.6875 C-3.5975 28.6875 -4.2575 28.6875 -4.9375 28.6875 C-5.22625 29.326875 -5.515 29.96625 -5.8125 30.625 C-6.9375 32.6875 -6.9375 32.6875 -8.9375 33.6875 C-13.90091236 34.30243604 -17.71092035 34.42344779 -22.0625 31.8125 C-24.71227711 27.39620482 -25.05378697 23.70665695 -23.9375 18.6875 C-19.46542134 12.84895286 -12.88837795 12.07092716 -5.9375 10.6875 C-5.6075 9.0375 -5.2775 7.3875 -4.9375 5.6875 C-10.23827717 5.36945337 -13.33519703 6.07255513 -17.9375 8.6875 C-18.9275 9.0175 -19.9175 9.3475 -20.9375 9.6875 C-22.3981285 7.04011084 -22.9375 5.79301666 -22.9375 2.6875 C-16.77746006 -3.47253994 -7.49841297 -3.35035473 0 0 Z " fill="#1E4E7F" transform="translate(544.9375,62.3125)"/>
<path d="M0 0 C4.05123528 2.07446232 6.74376252 3.98891116 9 8 C9 11.63 9 15.26 9 19 C1.41 19 -6.18 19 -14 19 C-11.5797509 24.63106761 -11.5797509 24.63106761 -9 27 C-4.00989735 27.46204654 -1.8521362 27.05514251 2 24 C4.68780658 24.16289737 5.74129004 24.76900897 7.75 26.5625 C8.1625 27.036875 8.575 27.51125 9 28 C2.33326741 34.84691456 2.33326741 34.84691456 -1.92578125 35.3359375 C-13.28488225 35.46695366 -13.28488225 35.46695366 -18 31 C-22.20944053 26.48988514 -23.45126238 21.1097361 -23.2421875 15.01171875 C-22.54228674 9.19802693 -19.80238313 4.70211814 -15.296875 1.1015625 C-10.53420149 -1.18257684 -5.11575839 -0.83535802 0 0 Z " fill="#1B4C7E" transform="translate(446,61)"/>
<path d="M0 0 C2.4375 1.5 2.4375 1.5 4 3 C4.66 2.67 5.32 2.34 6 2 C5.67 2.99 5.34 3.98 5 5 C4.01 5.33 3.02 5.66 2 6 C1.731875 7.0725 1.46375 8.145 1.1875 9.25 C0.01357619 12.95712782 -0.21962083 13.51472806 -3.0625 15.6875 C-6.07955703 17.67613229 -6.07955703 17.67613229 -6.9375 20.25 C-6.958125 20.8275 -6.97875 21.405 -7 22 C-6.67 22.33 -6.34 22.66 -6 23 C-5.92820036 24.51928038 -5.91607993 26.04167482 -5.9375 27.5625 C-5.94652344 28.38878906 -5.95554688 29.21507813 -5.96484375 30.06640625 C-5.97644531 30.70449219 -5.98804688 31.34257813 -6 32 C-6.99 32.495 -6.99 32.495 -8 33 C-8 30.69 -8 28.38 -8 26 C-8.45890625 26.55429688 -8.9178125 27.10859375 -9.390625 27.6796875 C-10.00421875 28.40414062 -10.6178125 29.12859375 -11.25 29.875 C-11.85328125 30.59429687 -12.4565625 31.31359375 -13.078125 32.0546875 C-15.92184964 34.93309171 -18.06270496 35.88522918 -22.0625 36.375 C-25 36 -25 36 -26.6796875 34.265625 C-29.03942024 30.21637946 -28.13953409 26.3944464 -27 22 C-22.27183198 11.82772684 -12.81526671 -2.26151765 0 0 Z " fill="#FBF2F0" transform="translate(245,58)"/>
<path d="M0 0 C-0.33 2.31 -0.66 4.62 -1 7 C2.63 6.67 6.26 6.34 10 6 C10.66 7.65 11.32 9.3 12 11 C11.46890625 11.64066406 10.9378125 12.28132813 10.390625 12.94140625 C2.98325807 21.55826006 2.98325807 21.55826006 -1 32 C4.46926127 29.1185719 4.46926127 29.1185719 9 25 C9.66 25.33 10.32 25.66 11 26 C10.34 26.99 9.68 27.98 9 29 C9.66 29 10.32 29 11 29 C11 31.97 11 34.94 11 38 C10.67 38 10.34 38 10 38 C9.67 36.02 9.34 34.04 9 32 C8.48050781 32.40992188 7.96101563 32.81984375 7.42578125 33.2421875 C-2.26318775 40.72830403 -2.26318775 40.72830403 -9 40 C-11 38 -11 38 -11.5625 34.0625 C-11.43481339 26.17146774 -5.56193074 20.02174858 -1 14 C-3.83000856 13.95382909 -3.83000856 13.95382909 -7 15 C-8.50760313 16.74211918 -9.66098274 18.51721107 -10.82421875 20.50390625 C-11.21222656 20.99761719 -11.60023437 21.49132812 -12 22 C-12.99 22 -13.98 22 -15 22 C-14.6041485 19.14986919 -14.34375573 17.39875665 -12.4375 15.1875 C-10.57282209 12.34994665 -11.07144244 10.25861884 -11.21875 6.96875 C-11 5 -11 5 -8.625 2.0625 C-5.13641006 -0.67853495 -4.17359033 -1.2520771 0 0 Z " fill="#FBF2EF" transform="translate(73,54)"/>
<path d="M0 0 C3.3125 0.125 3.3125 0.125 6 1 C5.36934243 4.21852831 4.21979305 6.50801069 2.4375 9.25 C1.98246094 9.95640625 1.52742188 10.6628125 1.05859375 11.390625 C0.70925781 11.92171875 0.35992187 12.4528125 0 13 C0.99 13 1.98 13 3 13 C1.64538046 15.94369245 0.05973438 18.25772139 -2 20.75 C-5.07567576 24.74087684 -6.11957452 28.06961732 -7 33 C-8.32 32.67 -9.64 32.34 -11 32 C-11.14042725 32.57975586 -11.28085449 33.15951172 -11.42553711 33.75683594 C-11.95548679 35.8261847 -12.55063139 37.85328956 -13.19140625 39.890625 C-13.41376953 40.59960938 -13.63613281 41.30859375 -13.86523438 42.0390625 C-14.09533203 42.76867187 -14.32542969 43.49828125 -14.5625 44.25 C-14.91344727 45.36761719 -14.91344727 45.36761719 -15.27148438 46.5078125 C-15.84662313 48.33886649 -16.4231725 50.1694773 -17 52 C-19.56630083 51.45804827 -20.82007286 51.16131398 -22.8125 49.375 C-24.53021758 45.93956484 -23.73953068 43.73597106 -23 40 C-22.1182848 37.47962542 -21.20778722 35.11528787 -20.125 32.6875 C-19.67568115 31.67067139 -19.67568115 31.67067139 -19.21728516 30.63330078 C-14.3263488 19.95973723 -8.18197081 8.51895478 0 0 Z " fill="#FBF3F1" transform="translate(197,57)"/>
<path d="M0 0 C2.64 0 5.28 0 8 0 C8 15.84 8 31.68 8 48 C5.36 48 2.72 48 0 48 C0 46.68 0 45.36 0 44 C-1.32 43.67 -2.64 43.34 -4 43 C-3.53820726 40.84496721 -3.08799278 39.14492928 -1.9375 37.25 C0.56668074 31.23996623 -1.18469246 25.63994012 -3.44140625 19.8828125 C-4 18 -4 18 -3 16 C-1.515 16.99 -1.515 16.99 0 18 C0 12.06 0 6.12 0 0 Z " fill="#174A7C" transform="translate(486,47)"/>
<path d="M0 0 C0 0.66 0 1.32 0 2 C-1.32 2 -2.64 2 -4 2 C-4 3.32 -4 4.64 -4 6 C-2.35 5.67 -0.7 5.34 1 5 C1.33 3.68 1.66 2.36 2 1 C2.33 1.66 2.66 2.32 3 3 C3.99 3 4.98 3 6 3 C5.98839844 3.77085938 5.97679687 4.54171875 5.96484375 5.3359375 C5.95582031 6.33882813 5.94679688 7.34171875 5.9375 8.375 C5.92589844 9.37273437 5.91429687 10.37046875 5.90234375 11.3984375 C5.81993398 13.98432453 5.81993398 13.98432453 7 16 C6.34 16 5.68 16 5 16 C4.71125 16.639375 4.4225 17.27875 4.125 17.9375 C3 20 3 20 1 21 C-3.96341236 21.61493604 -7.77342035 21.73594779 -12.125 19.125 C-14.75102151 14.74829749 -15.18499733 10.97698878 -14 6 C-10.26171174 0.98910297 -5.94545887 -0.12924911 0 0 Z " fill="#1B4C7E" transform="translate(535,75)"/>
<path d="M0 0 C2.375 0.25 2.375 0.25 5 1 C6.1640625 3.046875 6.1640625 3.046875 7 5 C6.41992188 5.8353125 6.41992188 5.8353125 5.828125 6.6875 C-0.74155386 16.12566392 -0.74155386 16.12566392 -4 27 C-2.35 26.67 -0.7 26.34 1 26 C0.9375 28.25 0.9375 28.25 0 31 C-4.06793592 33.89449287 -6.88908299 35.61950509 -12 35 C-12.86011221 32.0500839 -13.08299706 29.50320399 -13 26.4375 C-12.92062137 23.49552941 -13.04891491 21.85325528 -14 19 C-12.16174424 16.34474169 -10.22932841 14.20311945 -7.8125 12.0625 C-5.51586003 9.44908211 -5.31007261 7.41079876 -5 4 C-4.0409375 3.8453125 -4.0409375 3.8453125 -3.0625 3.6875 C-2.381875 3.460625 -1.70125 3.23375 -1 3 C-0.67 2.01 -0.34 1.02 0 0 Z " fill="#FCF6F4" transform="translate(251,59)"/>
<path d="M0 0 C2.97 0 5.94 0 9 0 C9 11.55 9 23.1 9 35 C6.03 35 3.06 35 0 35 C0 23.45 0 11.9 0 0 Z " fill="#245382" transform="translate(504,61)"/>
<path d="M0 0 C1.6875 0.875 1.6875 0.875 2.6875 1.875 C3.0625 4.0625 3.0625 4.0625 2.6875 6.875 C1.02083333 8.875 -0.64583333 10.875 -2.3125 12.875 C-2.73380907 15.62901951 -2.73380907 15.62901951 -2.3125 17.875 C-3.3025 18.205 -4.2925 18.535 -5.3125 18.875 C-5.3125 19.865 -5.3125 20.855 -5.3125 21.875 C-3.3325 22.205 -1.3525 22.535 0.6875 22.875 C-2.20673456 30.90826568 -8.21483704 38.09952756 -15.3125 42.875 C-15.9725 42.875 -16.6325 42.875 -17.3125 42.875 C-16.8515492 37.16067342 -15.28754489 33.49825762 -12.25 28.6875 C-9.09495984 23.71006129 -9.09495984 23.71006129 -8.3125 17.875 C-10.23272703 16.10090192 -10.23272703 16.10090192 -12.3125 14.875 C-9.3425 15.37 -9.3425 15.37 -6.3125 15.875 C-6.3125 14.555 -6.3125 13.235 -6.3125 11.875 C-6.3125 11.215 -6.3125 10.555 -6.3125 9.875 C-6.9725 9.875 -7.6325 9.875 -8.3125 9.875 C-8.6875 7.6875 -8.6875 7.6875 -8.3125 4.875 C-3.4700419 -0.18756983 -3.4700419 -0.18756983 0 0 Z " fill="#CA4536" transform="translate(110.3125,43.125)"/>
<path d="M0 0 C2.0625 0.69921875 2.0625 0.69921875 4.125 2.76171875 C5.70896671 7.72481444 5.96131323 11.819882 3.6875 16.57421875 C2.0625 18.69921875 2.0625 18.69921875 0.0625 20.69921875 C-3.95980253 21.22062834 -6.06980784 21.34442574 -9.375 18.88671875 C-11.69490217 14.15411832 -11.67297396 9.87076194 -10.9375 4.69921875 C-8.5065857 -0.7967614 -5.47315722 -0.98120746 0 0 Z " fill="#F0F6F8" transform="translate(480.9375,68.30078125)"/>
<path d="M0 0 C2.31 0 4.62 0 7 0 C7 1.32 7 2.64 7 4 C7.99 4.33 8.98 4.66 10 5 C10 5.66 10 6.32 10 7 C9.34 7 8.68 7 8 7 C8 15.58 8 24.16 8 33 C5.36 33 2.72 33 0 33 C0 22.11 0 11.22 0 0 Z " fill="#18497E" transform="translate(366,62)"/>
<path d="M0 0 C0.6875 1.6875 0.6875 1.6875 1 4 C-0.32264273 6.64528547 -1.88353905 8.8490321 -3.6875 11.1875 C-5.19550327 12.89701167 -5.19550327 12.89701167 -5 15 C-2.69 15 -0.38 15 2 15 C1 17 1 17 -1.8125 18.125 C-5 19 -5 19 -9 19 C-8.01 20.32 -7.02 21.64 -6 23 C-6.33 23.66 -6.66 24.32 -7 25 C-16.46552815 18.67235927 -16.46552815 18.67235927 -17.5625 13.1875 C-16.75114467 8.58981981 -14.41407468 6.07966646 -11 3 C-7.19046599 0.58988665 -4.50530258 -0.3975267 0 0 Z " fill="#CA4334" transform="translate(178,49)"/>
<path d="M0 0 C-0.47943168 9.10920192 -6.85513005 16.28629782 -12.97265625 22.50390625 C-15.31668089 24.23369707 -17.13595721 24.63765143 -20 25 C-20.9059281 22.5512489 -21.18611681 21.43286897 -20.13671875 18.9921875 C-7.13653137 0 -7.13653137 0 0 0 Z " fill="#CA4435" transform="translate(211,63)"/>
<path d="M0 0 C-1.59295408 9.49135136 -7.43207186 17.19446609 -15 23 C-17.78125 23.75 -17.78125 23.75 -20 24 C-20.9059281 21.5512489 -21.18611681 20.43286897 -20.13671875 17.9921875 C-7.82103321 0 -7.82103321 0 0 0 Z " fill="#C94233" transform="translate(132,64)"/>
<path d="M0 0 C0.515625 0.495 1.03125 0.99 1.5625 1.5 C4.90028661 3.55402253 7.14399755 3.41314312 11 3 C12.35622245 2.03126968 13.69417053 1.03565785 15 0 C17.68780658 0.16289737 18.74129004 0.76900897 20.75 2.5625 C21.1625 3.036875 21.575 3.51125 22 4 C15.33326741 10.84691456 15.33326741 10.84691456 11.07421875 11.3359375 C-0.11639496 11.46501032 -0.11639496 11.46501032 -5 7 C-4.01 6.67 -3.02 6.34 -2 6 C-1.855625 5.195625 -1.71125 4.39125 -1.5625 3.5625 C-1 1 -1 1 0 0 Z " fill="#235180" transform="translate(433,85)"/>
<path d="M0 0 C0.66 0 1.32 0 2 0 C2.28875 0.639375 2.5775 1.27875 2.875 1.9375 C3.82823451 4.15206079 3.82823451 4.15206079 6 5 C6 11.42930803 3.42874601 14.39942624 -0.9296875 18.9765625 C-7.09266409 25 -7.09266409 25 -10 25 C-10 17.64406134 -6.76118049 12.9043506 -2.8125 6.953125 C-1.2969718 4.48385923 -0.43753208 2.81661276 0 0 Z " fill="#CB4636" transform="translate(257,61)"/>
<path d="M0 0 C-0.41439873 5.56675625 -1.59656112 8.42717454 -5.25 12.625 C-6.01828125 13.52476563 -6.7865625 14.42453125 -7.578125 15.3515625 C-12.51623377 20.75162338 -12.51623377 20.75162338 -15 23 C-15.99 23 -16.98 23 -18 23 C-18 14.36251712 -11.83029801 7.93338938 -6.25 1.8125 C-4 0 -4 0 0 0 Z " fill="#C94839" transform="translate(245,63)"/>
<path d="M0 0 C1.67542976 0.28604898 3.34385343 0.61781233 5 1 C4.34 2.65 3.68 4.3 3 6 C3.66 6 4.32 6 5 6 C2.24341397 11.94429689 -1.95255849 17.22144579 -8 20 C-8.99 20 -9.98 20 -11 20 C-10.55314481 14.74147198 -8.5594685 11.34098898 -5.5 7.1875 C-5.08363281 6.60291016 -4.66726563 6.01832031 -4.23828125 5.41601562 C-1.26750638 1.26750638 -1.26750638 1.26750638 0 0 Z " fill="#CB4434" transform="translate(287,65)"/>
<path d="M0 0 C7.59 0 15.18 0 23 0 C21.68 0.33 20.36 0.66 19 1 C18.95875 1.5775 18.9175 2.155 18.875 2.75 C17.49763635 6.29179225 15.30919173 7.28412281 12 9 C8.4375 9.625 8.4375 9.625 5 9 C2.72309458 7.17504315 1.62765718 5.51547019 0 3 C0 2.01 0 1.02 0 0 Z " fill="#E9F0F5" transform="translate(432,80)"/>
<path d="M0 0 C2.64 0.33 5.28 0.66 8 1 C8 1.99 8 2.98 8 4 C6.97003906 3.69835937 5.94007813 3.39671875 4.87890625 3.0859375 C1.19676823 2.61635689 1.19676823 2.61635689 -0.60595703 4.14941406 C-2.20481162 5.90684572 -3.64358684 7.71933385 -5.0625 9.625 C-6.04834462 10.89195932 -7.03919429 12.15504094 -8.03515625 13.4140625 C-8.5161377 14.02282227 -8.99711914 14.63158203 -9.49267578 15.25878906 C-11.74840206 17.86452924 -14.28036984 19.89056918 -17 22 C-17.33 21.34 -17.66 20.68 -18 20 C-18.66 19.67 -19.32 19.34 -20 19 C-19.27296875 18.41605469 -19.27296875 18.41605469 -18.53125 17.8203125 C-13.53558772 13.6508559 -9.66610411 9.21891706 -5.859375 3.94140625 C-5.24578125 3.30074219 -4.6321875 2.66007812 -4 2 C-2.68 2 -1.36 2 0 2 C0 1.34 0 0.68 0 0 Z " fill="#FBECE9" transform="translate(269,66)"/>
<path d="M0 0 C1.2684375 0.2475 1.2684375 0.2475 2.5625 0.5 C-0.22832844 5.30642676 -3.33824898 9.88997202 -6.4375 14.5 C-7.4275 15.985 -7.4275 15.985 -8.4375 17.5 C-9.0975 16.51 -9.7575 15.52 -10.4375 14.5 C-12.4175 15.16 -14.3975 15.82 -16.4375 16.5 C-14.47805244 13.80127369 -12.46981932 11.14424843 -10.4375 8.5 C-9.86128906 7.736875 -9.28507812 6.97375 -8.69140625 6.1875 C-4.22283887 0.61423111 -4.22283887 0.61423111 0 0 Z " fill="#CB4D40" transform="translate(273.4375,67.5)"/>
<path d="M0 0 C2.375 1.75 2.375 1.75 4 4 C4 5.32 4 6.64 4 8 C-0.95 8 -5.9 8 -11 8 C-8.67741592 1.03224775 -7.24037482 -0.88657651 0 0 Z " fill="#E3EDF4" transform="translate(443,67)"/>
<path d="M0 0 C0.36180905 7.35678392 0.36180905 7.35678392 -1.125 10 C-3.88634715 11.47271848 -5.93002928 11.39191116 -9 11 C-11 8 -11 8 -10.8125 5.4375 C-10 3 -10 3 -7 1 C-2 0 -2 0 0 0 Z " fill="#E8F0F3" transform="translate(540,79)"/>
<path d="M0 0 C1.6875 0.875 1.6875 0.875 2.6875 1.875 C3.0625 4.1875 3.0625 4.1875 2.6875 6.875 C0.5625 9.25 0.5625 9.25 -2.3125 10.875 C-5.625 10.625 -5.625 10.625 -8.3125 9.875 C-8.6875 7.6875 -8.6875 7.6875 -8.3125 4.875 C-3.4700419 -0.18756983 -3.4700419 -0.18756983 0 0 Z " fill="#F9EAE6" transform="translate(110.3125,43.125)"/>
<path d="M0 0 C6.57692308 0.57692308 6.57692308 0.57692308 8 2 C8.29573841 4.80951486 8.38243085 6.41628976 6.8125 8.8125 C4.35092224 10.42525784 2.88934264 10.4334014 0 10 C-1.875 8.8125 -1.875 8.8125 -3 7 C-2.75546876 3.65807308 -2.39456443 2.39456443 0 0 Z " fill="#1E4F80" transform="translate(506,47)"/>
<path d="M0 0 C-0.99 0 -1.98 0 -3 0 C-3 4.95 -3 9.9 -3 15 C-3.66 15.33 -4.32 15.66 -5 16 C-5.33 12.7 -5.66 9.4 -6 6 C-6.2475 6.94875 -6.495 7.8975 -6.75 8.875 C-8 12 -8 12 -10 13.1875 C-10.66 13.455625 -11.32 13.72375 -12 14 C-12.99 15.485 -12.99 15.485 -14 17 C-14.66 17 -15.32 17 -16 17 C-14.62384049 12.59628958 -12.20078039 9.49729608 -9.33984375 5.96484375 C-7.87755303 4.07817506 -7.87755303 4.07817506 -7.50390625 1.81640625 C-7.33761719 1.21699219 -7.17132813 0.61757813 -7 0 C-3.86650268 -1.04449911 -3.01031744 -0.93423645 0 0 Z " fill="#C94E40" transform="translate(66,52)"/>
<path d="M0 0 C2.64 0 5.28 0 8 0 C8.33 0.99 8.66 1.98 9 3 C10.32 2.01 11.64 1.02 13 0 C14.32 0.66 15.64 1.32 17 2 C17 2.66 17 3.32 17 4 C16.01 4.33 15.02 4.66 14 5 C16.31 5.66 18.62 6.32 21 7 C20.34 7.66 19.68 8.32 19 9 C18.67 8.67 18.34 8.34 18 8 C14.52743085 7.69132719 12.6127712 7.61298661 9.625 9.5 C9.08875 9.995 8.5525 10.49 8 11 C8 10.01 8 9.02 8 8 C8.66 8 9.32 8 10 8 C9.505 7.5875 9.01 7.175 8.5 6.75 C7 5 7 5 7 1 C4.69 1 2.38 1 0 1 C0 0.67 0 0.34 0 0 Z " fill="#315A84" transform="translate(366,61)"/>
<path d="M0 0 C-0.47050781 0.51949219 -0.94101563 1.03898437 -1.42578125 1.57421875 C-4.67440177 5.21294277 -7.69660472 8.66419713 -10 13 C-10.99 12.34 -11.98 11.68 -13 11 C-11.68 10.34 -10.36 9.68 -9 9 C-9 8.01 -9 7.02 -9 6 C-9.66 6 -10.32 6 -11 6 C-11 6.66 -11 7.32 -11 8 C-11.66 7.67 -12.32 7.34 -13 7 C-9.06697242 0.33473645 -9.06697242 0.33473645 -4.8125 -1 C-2 -1 -2 -1 0 0 Z " fill="#C74E40" transform="translate(74,68)"/>
<path d="M0 0 C0.66 0 1.32 0 2 0 C1.62257767 6.16456476 -0.15870308 9.17375515 -4 14 C-7 10.375 -7 10.375 -7 7 C-4.625 4.4375 -4.625 4.4375 -2 2 C-1.34 1.34 -0.68 0.68 0 0 Z " fill="#CA3F2F" transform="translate(207,66)"/>
<path d="M0 0 C2.4375 1.5 2.4375 1.5 4 3 C4.66 2.67 5.32 2.34 6 2 C5.67 2.99 5.34 3.98 5 5 C4.01 5.33 3.02 5.66 2 6 C1.690625 7.134375 1.38125 8.26875 1.0625 9.4375 C0 13 0 13 -2.125 14.4375 C-2.74375 14.623125 -3.3625 14.80875 -4 15 C-3.525625 14.278125 -3.05125 13.55625 -2.5625 12.8125 C-1.05847097 10.10524774 -0.43400818 8.03805725 0 5 C-0.99 5 -1.98 5 -3 5 C-3 4.34 -3 3.68 -3 3 C-5.31 3 -7.62 3 -10 3 C-7.29404496 -0.82017183 -4.39970966 -0.46312733 0 0 Z " fill="#F3D3CD" transform="translate(245,58)"/>
<path d="M0 0 C0.99 0.66 1.98 1.32 3 2 C2.75 4.375 2.75 4.375 2 7 C-1.28870473 9.65626152 -4.93942336 9.36255149 -9 9 C-11.4375 7.5 -11.4375 7.5 -13 6 C-11.3603125 6.0928125 -11.3603125 6.0928125 -9.6875 6.1875 C-6.08357724 6.38097451 -6.08357724 6.38097451 -4.25 4.5 C-3.8375 4.005 -3.425 3.51 -3 3 C-2.01 3 -1.02 3 0 3 C0 2.01 0 1.02 0 0 Z " fill="#C75142" transform="translate(165,80)"/>
<path d="M0 0 C2.0625 0.4375 2.0625 0.4375 4 1 C-1 6 -6 11 -11 16 C-9.63408831 12.45756548 -8.09068516 9.07372071 -6.375 5.6875 C-5.70597656 4.36298828 -5.70597656 4.36298828 -5.0234375 3.01171875 C-4.68570312 2.34785156 -4.34796875 1.68398437 -4 1 C-3.01 1 -2.02 1 -1 1 C-0.67 0.67 -0.34 0.34 0 0 Z " fill="#C75A4D" transform="translate(307,66)"/>
<path d="M0 0 C0.33 0.66 0.66 1.32 1 2 C1.99 2 2.98 2 4 2 C3.98839844 2.77085938 3.97679687 3.54171875 3.96484375 4.3359375 C3.95582031 5.33882813 3.94679688 6.34171875 3.9375 7.375 C3.92589844 8.37273437 3.91429687 9.37046875 3.90234375 10.3984375 C3.81993398 12.98432453 3.81993398 12.98432453 5 15 C4.34 15 3.68 15 3 15 C2.34 16.32 1.68 17.64 1 19 C0.34 18.67 -0.32 18.34 -1 18 C-1 17.34 -1 16.68 -1 16 C-2.32 15.34 -3.64 14.68 -5 14 C-4.030625 13.690625 -3.06125 13.38125 -2.0625 13.0625 C0.84065792 12.30476658 0.84065792 12.30476658 2 11 C2.04092937 8.66702567 2.04241723 6.33294775 2 4 C1.01 4 0.02 4 -1 4 C-0.67 2.68 -0.34 1.36 0 0 Z " fill="#23507D" transform="translate(537,76)"/>
<path d="M0 0 C0.99 0.33 1.98 0.66 3 1 C3 1.66 3 2.32 3 3 C5.31 3 7.62 3 10 3 C9 5 9 5 6.1875 6.125 C3 7 3 7 -1 7 C-0.01 8.32 0.98 9.64 2 11 C1.67 11.66 1.34 12.32 1 13 C-0.15227823 12.23883449 -1.2966386 11.46567307 -2.4375 10.6875 C-3.07558594 10.25824219 -3.71367187 9.82898438 -4.37109375 9.38671875 C-6 8 -6 8 -7 5 C-6.34 5 -5.68 5 -5 5 C-5 5.66 -5 6.32 -5 7 C-4.01 7 -3.02 7 -2 7 C-2 6.34 -2 5.68 -2 5 C-1.34 5 -0.68 5 0 5 C0 3.35 0 1.7 0 0 Z " fill="#CA5041" transform="translate(170,61)"/>
<path d="M0 0 C0.66 0 1.32 0 2 0 C1.97679687 0.84304687 1.95359375 1.68609375 1.9296875 2.5546875 C1.91164062 3.65039062 1.89359375 4.74609375 1.875 5.875 C1.84019531 7.51082031 1.84019531 7.51082031 1.8046875 9.1796875 C1.69939466 12.1371051 1.69939466 12.1371051 4 14 C3.525625 14.886875 3.05125 15.77375 2.5625 16.6875 C1.20262851 19.57042756 0.45939614 21.87610623 0 25 C-0.33 25 -0.66 25 -1 25 C-1 23.02 -1 21.04 -1 19 C-1.66 19 -2.32 19 -3 19 C-2.7834375 18.46632813 -2.566875 17.93265625 -2.34375 17.3828125 C-0.12101138 11.43492861 0.35617135 6.31874363 0 0 Z " fill="#C54C3E" transform="translate(218,60)"/>
<path d="M0 0 C-0.59283621 3.39192363 -1.76743189 5.2107757 -4.0625 7.75 C-4.61035156 8.36359375 -5.15820312 8.9771875 -5.72265625 9.609375 C-6.14417969 10.06828125 -6.56570313 10.5271875 -7 11 C-7.33 10.34 -7.66 9.68 -8 9 C-8.99 8.67 -9.98 8.34 -11 8 C-9.73861805 6.65772182 -8.46555441 5.32641323 -7.1875 4 C-6.47980469 3.2575 -5.77210938 2.515 -5.04296875 1.75 C-3 0 -3 0 0 0 Z " fill="#F9E6E2" transform="translate(330,74)"/>
<path d="M0 0 C0.33 0.66 0.66 1.32 1 2 C1.66 2 2.32 2 3 2 C2.6875 3.875 2.6875 3.875 2 6 C-1.42094242 8.28062828 -2.68187222 8.21925007 -6.6875 8.125 C-8.17830078 8.09792969 -8.17830078 8.09792969 -9.69921875 8.0703125 C-10.45847656 8.04710938 -11.21773438 8.02390625 -12 8 C-12 7.67 -12 7.34 -12 7 C-10.906875 6.896875 -9.81375 6.79375 -8.6875 6.6875 C-5.14440371 6.02692273 -4.06756277 5.7972908 -2 3 C-2.99 2.34 -3.98 1.68 -5 1 C-3.35 0.67 -1.7 0.34 0 0 Z " fill="#2C5784" transform="translate(481,88)"/>
<path d="M0 0 C0.33 0 0.66 0 1 0 C1 1.65 1 3.3 1 5 C1.66 5 2.32 5 3 5 C3 4.34 3 3.68 3 3 C3.99 3.33 4.98 3.66 6 4 C5.175 4.804375 4.35 5.60875 3.5 6.4375 C0.52746015 9.92918765 0.56736934 12.79502351 0.82421875 17.2421875 C0.88222656 17.82226562 0.94023437 18.40234375 1 19 C0.34 18.67 -0.32 18.34 -1 18 C-1 15.03 -1 12.06 -1 9 C-1.66 9 -2.32 9 -3 9 C-2.01 6.03 -1.02 3.06 0 0 Z " fill="#C74F42" transform="translate(139,70)"/>
<path d="M0 0 C0.66 0.33 1.32 0.66 2 1 C1.34 1.66 0.68 2.32 0 3 C0 3.99 0 4.98 0 6 C-1.75 7.60546875 -1.75 7.60546875 -4 9.1875 C-4.7425 9.71730469 -5.485 10.24710938 -6.25 10.79296875 C-6.8275 11.19128906 -7.405 11.58960937 -8 12 C-8.66 11.34 -9.32 10.68 -10 10 C-6.92118304 6.12948725 -3.99926986 2.97088618 0 0 Z " fill="#F8E0DB" transform="translate(208,59)"/>
<path d="M0 0 C0.66 0.33 1.32 0.66 2 1 C1.34 1.66 0.68 2.32 0 3 C0.99 3.66 1.98 4.32 3 5 C2.071875 5.45375 1.14375 5.9075 0.1875 6.375 C-3.03921389 7.9421633 -3.03921389 7.9421633 -6 10 C-6 9.34 -6 8.68 -6 8 C-8.475 9.485 -8.475 9.485 -11 11 C-9.51670379 6.30289532 -9.51670379 6.30289532 -7.1875 4.9375 C-6.465625 4.628125 -5.74375 4.31875 -5 4 C-3.31110128 2.6949419 -1.6396721 1.36639342 0 0 Z " fill="#F5DAD5" transform="translate(129,59)"/>
<path d="M0 0 C2.64 0.33 5.28 0.66 8 1 C8 1.99 8 2.98 8 4 C6.4221875 3.5978125 6.4221875 3.5978125 4.8125 3.1875 C2.9253125 3.0946875 2.9253125 3.0946875 1 3 C-1.68767578 5.43750025 -1.68767578 5.43750025 -4 8 C-6.3125 7.8125 -6.3125 7.8125 -8 7 C-5.6875 4.5 -5.6875 4.5 -3 2 C-2.01 2 -1.02 2 0 2 C0 1.34 0 0.68 0 0 Z " fill="#F5DCD7" transform="translate(269,66)"/>
<path d="M0 0 C2.97 0.33 5.94 0.66 9 1 C7.3125 3.5 7.3125 3.5 5 6 C2.25 6.3125 2.25 6.3125 0 6 C-1.125 2.25 -1.125 2.25 0 0 Z " fill="#14487C" transform="translate(471,89)"/>
<path d="M0 0 C0 2.31 0 4.62 0 7 C1.65 7 3.3 7 5 7 C5 7.33 5 7.66 5 8 C2.69 8 0.38 8 -2 8 C-1.67 5.69 -1.34 3.38 -1 1 C-5.30840713 2.07710178 -8.63576723 3.03947516 -12 6 C-12.33 4.35 -12.66 2.7 -13 1 C-8.59085217 -0.10228696 -4.51617599 -0.07654536 0 0 Z " fill="#C6554B" transform="translate(277,53)"/>
<path d="M0 0 C0.99 0.66 1.98 1.32 3 2 C3.29296875 4.1640625 3.29296875 4.1640625 3.1875 6.625 C3.16042969 7.44226563 3.13335937 8.25953125 3.10546875 9.1015625 C3.07066406 9.72804688 3.03585938 10.35453125 3 11 C2.01 11.495 2.01 11.495 1 12 C1 9.69 1 7.38 1 5 C0.01 5.99 -0.98 6.98 -2 8 C-2.66 6.68 -3.32 5.36 -4 4 C-2.68 2.68 -1.36 1.36 0 0 Z " fill="#F8E1DA" transform="translate(236,79)"/>
<path d="M0 0 C0.33 0 0.66 0 1 0 C1 1.65 1 3.3 1 5 C1.99 5 2.98 5 4 5 C3.54738642 6.43931117 3.08767021 7.87638999 2.625 9.3125 C2.36976563 10.11300781 2.11453125 10.91351563 1.8515625 11.73828125 C1 14 1 14 -1 17 C-0.67 14.69 -0.34 12.38 0 10 C-0.66 9.67 -1.32 9.34 -2 9 C-1.34 6.03 -0.68 3.06 0 0 Z " fill="#C85A4D" transform="translate(175,80)"/>
<path d="M0 0 C0.61875 0.33 1.2375 0.66 1.875 1 C3.91018344 2.14193235 3.91018344 2.14193235 6 2 C6 2.99 6 3.98 6 5 C3.11165997 7.10770759 1.61537605 8 -2 8 C-1.125 2.25 -1.125 2.25 0 0 Z " fill="#C64A3A" transform="translate(278,77)"/>
<path d="M0 0 C0.33 0 0.66 0 1 0 C1.042721 1.66611905 1.04063832 3.33382885 1 5 C0.67 5.33 0.34 5.66 0 6 C0.99 6.66 1.98 7.32 3 8 C-0.625 11 -0.625 11 -4 11 C-3.49172849 6.62886504 -2.54826592 3.61004338 0 0 Z " fill="#CA5C50" transform="translate(76,75)"/>
<path d="M0 0 C0.33 0.66 0.66 1.32 1 2 C-0.98 4.31 -2.96 6.62 -5 9 C-4.34 9.33 -3.68 9.66 -3 10 C-3 12.31 -3 14.62 -3 17 C-3.33 17 -3.66 17 -4 17 C-4.33 15.35 -4.66 13.7 -5 12 C-5.99 12.495 -5.99 12.495 -7 13 C-7.66 11.68 -8.32 10.36 -9 9 C-8.51789063 8.60167969 -8.03578125 8.20335938 -7.5390625 7.79296875 C-6.90742188 7.26316406 -6.27578125 6.73335938 -5.625 6.1875 C-4.99851562 5.66542969 -4.37203125 5.14335938 -3.7265625 4.60546875 C-1.7778952 2.91774261 -1.7778952 2.91774261 0 0 Z " fill="#F4DBD6" transform="translate(290,74)"/>
<path d="M0 0 C-0.33 1.98 -0.66 3.96 -1 6 C-1.33 5.01 -1.66 4.02 -2 3 C-2.7425 3.763125 -3.485 4.52625 -4.25 5.3125 C-6.4263323 7.4393702 -8.52167796 9.2559956 -11 11 C-11.66 10.67 -12.32 10.34 -13 10 C-11.73232923 8.70522938 -10.46073776 7.41429661 -9.1875 6.125 C-8.47980469 5.40570313 -7.77210938 4.68640625 -7.04296875 3.9453125 C-2.89959839 0 -2.89959839 0 0 0 Z " fill="#C35144" transform="translate(211,63)"/>
<path d="M0 0 C0.99 0.66 1.98 1.32 3 2 C3.1875 4.625 3.1875 4.625 3 7 C2.34 7 1.68 7 1 7 C1 7.66 1 8.32 1 9 C0.01 9 -0.98 9 -2 9 C-2 8.34 -2 7.68 -2 7 C-2.66 7 -3.32 7 -4 7 C-4 6.34 -4 5.68 -4 5 C-2.68 5.33 -1.36 5.66 0 6 C-0.2784375 4.7934375 -0.2784375 4.7934375 -0.5625 3.5625 C-0.706875 2.716875 -0.85125 1.87125 -1 1 C-0.67 0.67 -0.34 0.34 0 0 Z " fill="#CF3927" transform="translate(167,59)"/>
<path d="M0 0 C2.97 0.495 2.97 0.495 6 1 C6 2.65 6 4.3 6 6 C4.33388095 6.042721 2.66617115 6.04063832 1 6 C0 5 0 5 -0.0625 2.4375 C-0.041875 1.633125 -0.02125 0.82875 0 0 Z " fill="#14487F" transform="translate(546,89)"/>
<path d="M0 0 C-0.33 1.65 -0.66 3.3 -1 5 C-2.32 4.34 -3.64 3.68 -5 3 C-5 4.32 -5 5.64 -5 7 C-6.98 7.33 -8.96 7.66 -11 8 C-10.04578192 6.85073734 -9.08647955 5.70569459 -8.125 4.5625 C-7.59132813 3.92441406 -7.05765625 3.28632812 -6.5078125 2.62890625 C-4.27268848 0.21427745 -3.3395179 0 0 0 Z " fill="#C1493C" transform="translate(132,64)"/>
<path d="M0 0 C0 0.66 0 1.32 0 2 C-1.7578125 2.9765625 -3.515625 3.953125 -5.2734375 4.9296875 C-7.1612614 6.00897274 -7.1612614 6.00897274 -9 8 C-8.67 5.69 -8.34 3.38 -8 1 C-5.07175348 0.02391783 -3.04386724 -0.08226668 0 0 Z " fill="#C64233" transform="translate(71,51)"/>
<path d="M0 0 C0.33 0.66 0.66 1.32 1 2 C1.66 2.33 2.32 2.66 3 3 C1.02 5.97 1.02 5.97 -1 9 C-2.5625 7.75 -2.5625 7.75 -4 6 C-3.6875 3.8125 -3.6875 3.8125 -3 2 C-2.01 2 -1.02 2 0 2 C0 1.34 0 0.68 0 0 Z " fill="#CB4334" transform="translate(113,57)"/>
<path d="M0 0 C0 4.15813765 -2.19733193 6.18930136 -5 9 C-7.45265894 10.70942896 -8.30053979 11.1165767 -11.25 10.625 C-11.8275 10.41875 -12.405 10.2125 -13 10 C-11.96875 9.46375 -10.9375 8.9275 -9.875 8.375 C-5.89930848 6.12399747 -3.10478867 3.33196833 0 0 Z " fill="#C74F43" transform="translate(324,83)"/>
<path d="M0 0 C0.99 0 1.98 0 3 0 C3.33 1.98 3.66 3.96 4 6 C1.69 5.67 -0.62 5.34 -3 5 C-1.125 1.125 -1.125 1.125 0 0 Z " fill="#F9E6E2" transform="translate(143,75)"/>
<path d="M0 0 C0.886875 0.12375 1.77375 0.2475 2.6875 0.375 C1.2025 2.85 1.2025 2.85 -0.3125 5.375 C-0.9725 4.385 -1.6325 3.395 -2.3125 2.375 C-3.7975 4.85 -3.7975 4.85 -5.3125 7.375 C-6.3025 7.045 -7.2925 6.715 -8.3125 6.375 C-4.12788462 0.46730769 -4.12788462 0.46730769 0 0 Z " fill="#C45043" transform="translate(273.3125,67.625)"/>
<path d="M0 0 C0.33 1.32 0.66 2.64 1 4 C-3.455 7.96 -3.455 7.96 -8 12 C-8.66 11.67 -9.32 11.34 -10 11 C-9.44570312 10.45730469 -8.89140625 9.91460937 -8.3203125 9.35546875 C-7.23363281 8.28232422 -7.23363281 8.28232422 -6.125 7.1875 C-5.40570313 6.47980469 -4.68640625 5.77210937 -3.9453125 5.04296875 C-1.84641063 2.95600806 -1.84641063 2.95600806 0 0 Z " fill="#F4DAD5" transform="translate(127,75)"/>
<path d="M0 0 C1.5625 1.75 1.5625 1.75 3 4 C2.6875 6.25 2.6875 6.25 2 8 C1.67 6.68 1.34 5.36 1 4 C0.21625 4.515625 -0.5675 5.03125 -1.375 5.5625 C-2.24125 6.036875 -3.1075 6.51125 -4 7 C-4.66 6.67 -5.32 6.34 -6 6 C-4.02 4.02 -2.04 2.04 0 0 Z " fill="#C65047" transform="translate(300,84)"/>
<path d="M0 0 C0.66 0.33 1.32 0.66 2 1 C1.01 2.485 1.01 2.485 0 4 C0.66 4 1.32 4 2 4 C2 6.97 2 9.94 2 13 C1.67 13 1.34 13 1 13 C0.855625 12.05125 0.71125 11.1025 0.5625 10.125 C0.17064601 7.1065506 0.17064601 7.1065506 -1 5 C-1.99 4.67 -2.98 4.34 -4 4 C-2.68 2.68 -1.36 1.36 0 0 Z " fill="#F3D7D2" transform="translate(82,79)"/>
<path d="M0 0 C-1.20381448 2.49361571 -2.45428722 4.68143083 -4 7 C-4.99 7 -5.98 7 -7 7 C-6.75 4.625 -6.75 4.625 -6 2 C-3.84898936 0.54286376 -2.59713506 0 0 0 Z " fill="#FBE9E4" transform="translate(65,69)"/>
<path d="M0 0 C0.33 0 0.66 0 1 0 C1 5.94 1 11.88 1 18 C-0.32 17.34 -1.64 16.68 -3 16 C-2.34 15.34 -1.68 14.68 -1 14 C-0.69940057 11.63490639 -0.50484988 9.25558119 -0.375 6.875 C-0.30023438 5.59367187 -0.22546875 4.31234375 -0.1484375 2.9921875 C-0.09945313 2.00476562 -0.05046875 1.01734375 0 0 Z " fill="#ACC4D2" transform="translate(485,47)"/>
<path d="M0 0 C0.33 0 0.66 0 1 0 C1.25 2.25 1.25 2.25 1 5 C-1 7.3125 -1 7.3125 -3 9 C-3 8.34 -3 7.68 -3 7 C-3.99 7.33 -4.98 7.66 -6 8 C-6 7.34 -6 6.68 -6 6 C-5.01 6 -4.02 6 -3 6 C-2.690625 5.195625 -2.38125 4.39125 -2.0625 3.5625 C-1 1 -1 1 0 0 Z " fill="#C8412F" transform="translate(271,69)"/>
<path d="M0 0 C-1.38009621 3.33523252 -2.84950652 5.18607951 -6 7 C-6.99 6.67 -7.98 6.34 -9 6 C-7.36742273 2.73484545 -3.71579409 0 0 0 Z " fill="#2A5682" transform="translate(402,61)"/>
<path d="M0 0 C0.33 0 0.66 0 1 0 C1 1.65 1 3.3 1 5 C3.31 5.33 5.62 5.66 8 6 C7.67 6.66 7.34 7.32 7 8 C4.19637237 8.22732116 2.53813483 8.34081872 0.125 6.8125 C-1 5 -1 5 -0.6875 2.3125 C-0.460625 1.549375 -0.23375 0.78625 0 0 Z " fill="#3F6489" transform="translate(504,49)"/>
<path d="M0 0 C0.33 0.66 0.66 1.32 1 2 C0.06553465 4.03144641 -0.93224776 6.03533587 -2 8 C-2.66 7.34 -3.32 6.68 -4 6 C-5.32 5.67 -6.64 5.34 -8 5 C-4.04 2.525 -4.04 2.525 0 0 Z " fill="#C96B5F" transform="translate(98,88)"/>
<path d="M0 0 C0.66 0.99 1.32 1.98 2 3 C1.375 4.875 1.375 4.875 0 7 C-3.125 8.25 -3.125 8.25 -6 9 C-5.67 8.34 -5.34 7.68 -5 7 C-4.34 7 -3.68 7 -3 7 C-2.690625 6.21625 -2.38125 5.4325 -2.0625 4.625 C-1 2 -1 2 0 0 Z " fill="#CB5649" transform="translate(186,55)"/>
<path d="M0 0 C1.32 0 2.64 0 4 0 C3.67 1.32 3.34 2.64 3 4 C1.68 4 0.36 4 -1 4 C-2.67225729 4.30404678 -4.34080104 4.63128912 -6 5 C-6 4.34 -6 3.68 -6 3 C-5.195625 2.690625 -4.39125 2.38125 -3.5625 2.0625 C-1.10919595 1.23664655 -1.10919595 1.23664655 0 0 Z " fill="#124881" transform="translate(448,87)"/>
<path d="M0 0 C0.33 0.99 0.66 1.98 1 3 C-1.31 4.98 -3.62 6.96 -6 9 C-6.66 8.67 -7.32 8.34 -8 8 C-5.36 5.36 -2.72 2.72 0 0 Z " fill="#C9564C" transform="translate(132,83)"/>
<path d="M0 0 C1.4606285 2.64738916 2 3.89448334 2 7 C0.02 7.99 0.02 7.99 -2 9 C-1.125 2.25 -1.125 2.25 0 0 Z M0 4 C1 6 1 6 1 6 Z " fill="#C66053" transform="translate(95,77)"/>
<path d="M0 0 C2.0625 0.4375 2.0625 0.4375 4 1 C3.1875 2.9375 3.1875 2.9375 2 5 C1.01 5.33 0.02 5.66 -1 6 C-1.042721 4.33388095 -1.04063832 2.66617115 -1 1 C-0.67 0.67 -0.34 0.34 0 0 Z " fill="#C55141" transform="translate(248,80)"/>
<path d="M0 0 C0.33 0.66 0.66 1.32 1 2 C1.66 2.33 2.32 2.66 3 3 C2.2575 3.5775 1.515 4.155 0.75 4.75 C-1.66087643 6.72253526 -3.84042701 8.76044282 -6 11 C-4.54955729 6.89041233 -2.48889248 3.56741255 0 0 Z " fill="#C97D77" transform="translate(203,59)"/>
<path d="M0 0 C0.66 0.33 1.32 0.66 2 1 C2 4.96 2 8.92 2 13 C1.34 12.67 0.68 12.34 0 12 C0 9.03 0 6.06 0 3 C-0.66 3 -1.32 3 -2 3 C-2 2.34 -2 1.68 -2 1 C-1.34 0.67 -0.68 0.34 0 0 Z " fill="#C2493B" transform="translate(138,76)"/>
<path d="M0 0 C0.66 0 1.32 0 2 0 C1.67 1.65 1.34 3.3 1 5 C-0.65 5.33 -2.3 5.66 -4 6 C-4 4.68 -4 3.36 -4 2 C-2.68 2 -1.36 2 0 2 C0 1.34 0 0.68 0 0 Z " fill="#184977" transform="translate(535,75)"/>
<path d="M0 0 C0.66 0.99 1.32 1.98 2 3 C0.625 5 0.625 5 -1 7 C-1.66 7 -2.32 7 -3 7 C-3 7.99 -3 8.98 -3 10 C-3.66 9.67 -4.32 9.34 -5 9 C-3.35 6.03 -1.7 3.06 0 0 Z " fill="#C85848" transform="translate(49,69)"/>
<path d="M0 0 C0.33 1.32 0.66 2.64 1 4 C-2 5 -2 5 -4.1875 4.0625 C-4.785625 3.711875 -5.38375 3.36125 -6 3 C-3.375 0 -3.375 0 0 0 Z " fill="#FDFAF8" transform="translate(213,59)"/>
<path d="M0 0 C-1.5625 1.5625 -1.5625 1.5625 -4 3 C-7.75 2.6875 -7.75 2.6875 -11 2 C-10.67 1.34 -10.34 0.68 -10 0 C-2.58823529 -1.29411765 -2.58823529 -1.29411765 0 0 Z " fill="#C34738" transform="translate(201,94)"/>
<path d="M0 0 C0.66 0 1.32 0 2 0 C2.66 1.65 3.32 3.3 4 5 C2.35 5 0.7 5 -1 5 C-1.33 6.32 -1.66 7.64 -2 9 C-2.33 8.34 -2.66 7.68 -3 7 C-2.06421005 4.64018187 -1.06652192 2.30368736 0 0 Z " fill="#C9695F" transform="translate(186,89)"/>
<path d="M0 0 C0.99 0.495 0.99 0.495 2 1 C2.33 1.99 2.66 2.98 3 4 C3.66 4.33 4.32 4.66 5 5 C5.625 7.5625 5.625 7.5625 6 10 C2.64888166 7.76592111 1.18446044 6.73784176 0.1875 2.75 C0.125625 1.8425 0.06375 0.935 0 0 Z " fill="#C44C3D" transform="translate(146,76)"/>
<path d="M0 0 C0 0.66 0 1.32 0 2 C-3.3 2.33 -6.6 2.66 -10 3 C-5.78492722 -0.16130459 -4.93928888 -0.3367697 0 0 Z " fill="#466D91" transform="translate(535,75)"/>
<path d="M0 0 C0.66 0.33 1.32 0.66 2 1 C1.67 2.32 1.34 3.64 1 5 C0.01 5 -0.98 5 -2 5 C-2.33 5.99 -2.66 6.98 -3 8 C-3.33 6.35 -3.66 4.7 -4 3 C-2.68 2.01 -1.36 1.02 0 0 Z " fill="#325A84" transform="translate(526,62)"/>
<path d="M0 0 C0.66 0 1.32 0 2 0 C0.55746343 3.36591866 -1.33264727 5.51047079 -4 8 C-4.66 7.67 -5.32 7.34 -6 7 C-5.04882866 5.8274869 -4.08882991 4.66212985 -3.125 3.5 C-2.59132812 2.8503125 -2.05765625 2.200625 -1.5078125 1.53125 C-0.76144531 0.77328125 -0.76144531 0.77328125 0 0 Z " fill="#F6D7D1" transform="translate(159,49)"/>
<path d="M0 0 C0.66 0 1.32 0 2 0 C2 0.66 2 1.32 2 2 C2.66 2.33 3.32 2.66 4 3 C1.69 4.65 -0.62 6.3 -3 8 C-2.690625 7.236875 -2.38125 6.47375 -2.0625 5.6875 C-1.32106407 3.81210323 -0.63771783 1.91315348 0 0 Z " fill="#C25B52" transform="translate(124,58)"/>
<path d="M0 0 C0.66 0 1.32 0 2 0 C2 1.98 2 3.96 2 6 C3.65 6.33 5.3 6.66 7 7 C7 7.33 7 7.66 7 8 C4.69 8 2.38 8 0 8 C0 5.36 0 2.72 0 0 Z " fill="#BE4B41" transform="translate(72,53)"/>
<path d="M0 0 C0.33 0.66 0.66 1.32 1 2 C1.99 2 2.98 2 4 2 C4 4.64 4 7.28 4 10 C3.67 10 3.34 10 3 10 C2.67 8.02 2.34 6.04 2 4 C1.01 4 0.02 4 -1 4 C-0.67 2.68 -0.34 1.36 0 0 Z " fill="#597FA1" transform="translate(537,76)"/>
<path d="M0 0 C0.33 0.66 0.66 1.32 1 2 C1.66 2.33 2.32 2.66 3 3 C2.01 3.66 1.02 4.32 0 5 C0 4.34 0 3.68 0 3 C-2.475 4.485 -2.475 4.485 -5 6 C-4.1875 3.5625 -4.1875 3.5625 -3 1 C-2.01 0.67 -1.02 0.34 0 0 Z " fill="#E6BFB9" transform="translate(123,64)"/>
<path d="M0 0 C0.99 0 1.98 0 3 0 C3 0.99 3 1.98 3 3 C2.01 3.33 1.02 3.66 0 4 C-0.33 4.66 -0.66 5.32 -1 6 C-1.66 5.67 -2.32 5.34 -3 5 C-1.6875 2.5 -1.6875 2.5 0 0 Z " fill="#C83D2E" transform="translate(239,65)"/>
<path d="M0 0 C1.32 0.66 2.64 1.32 4 2 C1.32521756 3.6627026 -0.9995144 4.99983813 -4 6 C-2.84826645 3.53199953 -1.95216435 1.95216435 0 0 Z " fill="#F8DCD7" transform="translate(119,56)"/>
<path d="M0 0 C0.33 0.66 0.66 1.32 1 2 C0.06553465 4.03144641 -0.93224776 6.03533587 -2 8 C-2.99 7.67 -3.98 7.34 -5 7 C-3.35 4.69 -1.7 2.38 0 0 Z " fill="#CA5549" transform="translate(314,51)"/>
<path d="M0 0 C-0.3125 1.875 -0.3125 1.875 -1 4 C-1.99 4.66 -2.98 5.32 -4 6 C-4 5.34 -4 4.68 -4 4 C-4.66 3.67 -5.32 3.34 -6 3 C-2.25 0 -2.25 0 0 0 Z " fill="#F9E6E1" transform="translate(123,67)"/>
<path d="M0 0 C0.99 0.33 1.98 0.66 3 1 C2.67 1.99 2.34 2.98 2 4 C0.35 4.33 -1.3 4.66 -3 5 C-2.625 3.0625 -2.625 3.0625 -2 1 C-1.34 0.67 -0.68 0.34 0 0 Z " fill="#15497C" transform="translate(467,64)"/>
</svg>
