<?xml version="1.0" encoding="UTF-8"?>
<svg version="1.1" xmlns="http://www.w3.org/2000/svg" width="1003" height="403">
<path d="M0 0 C1.67220365 -0.00461509 3.34440323 -0.01097207 5.01659441 -0.01890898 C9.5882538 -0.03554197 14.15957737 -0.02738349 18.73123765 -0.0149641 C23.67065549 -0.00589116 28.61001673 -0.01989446 33.54942322 -0.03088379 C43.21647111 -0.04864965 52.88339462 -0.04483762 62.55044734 -0.03323323 C70.40860632 -0.02419158 78.2667305 -0.02297807 86.12489319 -0.02732849 C87.24424815 -0.02794142 88.36360311 -0.02855436 89.51687792 -0.02918586 C91.79098301 -0.03046479 94.06508809 -0.03176164 96.33919317 -0.03307623 C117.65242704 -0.04447637 138.96559204 -0.03137719 160.27881461 -0.00987476 C178.55777776 0.00799569 196.83663928 0.00489142 215.11560059 -0.0135498 C236.35372003 -0.0349665 257.59177915 -0.04337778 278.82990789 -0.03110075 C281.09554385 -0.02982658 283.36117982 -0.0285691 285.6268158 -0.02732849 C287.29882374 -0.02640284 287.29882374 -0.02640284 289.00460961 -0.02545848 C296.85131883 -0.02200799 304.69798971 -0.02782747 312.54469299 -0.0372467 C322.11009407 -0.04847692 331.67536388 -0.04540507 341.24074996 -0.02412373 C346.1191045 -0.01362715 350.99724036 -0.00946779 355.87559319 -0.02272034 C360.34527082 -0.03467884 364.81452798 -0.02802487 369.28416771 -0.00681013 C370.89707493 -0.00235869 372.510018 -0.0045774 374.12290198 -0.01431328 C385.2631583 -0.07637724 395.17730094 0.4727652 403.81335449 8.19543457 C412.37277676 16.82880433 411.95756727 27.46145225 411.90930176 38.8026123 C411.91636763 40.55124639 411.92511544 42.29987437 411.93540955 44.04849243 C411.95783837 48.77791988 411.95497907 53.50701164 411.94608808 58.23647189 C411.94096411 62.19264638 411.94828216 66.14875858 411.95556015 70.10492665 C411.97253849 79.44154825 411.96901412 88.77800633 411.95227051 98.11462402 C411.9353495 107.72994692 411.95118817 117.34481582 411.98349339 126.96008915 C412.01022743 135.2321547 412.01745504 143.50407926 412.00897831 151.77618366 C412.00406044 156.70944203 412.00620293 161.64242732 412.02676582 166.57565117 C412.04518305 171.21587581 412.03909077 175.85544968 412.01456642 180.4956398 C412.00957772 182.19269172 412.0129976 183.88979374 412.02571487 185.58680534 C412.09660321 195.8638863 411.73979874 204.6821962 404.41542912 212.63713741 C395.54951097 221.29349196 385.60307977 220.94078611 373.94042969 220.8888855 C372.25218036 220.89234407 370.56393329 220.89710997 368.87569094 220.90306723 C364.24590528 220.91557951 359.61630538 220.90940578 354.9865191 220.90010858 C349.98985558 220.89331938 344.99322395 220.90379868 339.99656677 220.91204834 C330.21182007 220.92538923 320.4271424 220.92250633 310.64239299 220.91381042 C302.69022421 220.90703569 294.73807477 220.90611624 286.78590393 220.90938187 C285.08831036 220.91007142 285.08831036 220.91007142 283.35642198 220.91077489 C281.05734709 220.91173407 278.75827221 220.91270671 276.45919734 220.91369267 C254.90000271 220.9222476 233.34084635 220.91241079 211.78165799 220.89629157 C193.28227594 220.8828883 174.78295037 220.88521636 156.28356934 220.89904785 C134.80159624 220.91510182 113.31965669 220.92142362 91.83767843 220.91221106 C89.54705398 220.91125541 87.25642952 220.9103123 84.96580505 220.90938187 C83.83876955 220.90891904 82.71173405 220.90845621 81.55054596 220.90797936 C73.60779088 220.90538893 65.66505708 220.90976163 57.7223053 220.91682053 C48.04294819 220.92523367 38.36366407 220.92295925 28.68431532 220.90697829 C23.74562794 220.89909313 18.80706226 220.89600823 13.86837578 220.90592575 C9.34699115 220.91486797 4.825841 220.90994753 0.30447763 220.89399309 C-1.33067486 220.8906433 -2.96584717 220.89234383 -4.6009869 220.89962046 C-15.57041683 220.94468968 -24.42123971 220.68436772 -32.66378212 212.6371994 C-40.61409168 204.00190523 -40.34331444 194.14398428 -40.27111816 183.09973145 C-40.27790328 181.350948 -40.28681141 179.60217172 -40.29766846 177.85340881 C-40.32036219 173.12809363 -40.3116667 168.40332745 -40.29577303 163.67800331 C-40.28306239 158.71924041 -40.29486844 153.76052268 -40.30270386 148.80175781 C-40.31178542 140.4763551 -40.29985175 132.15117459 -40.27600098 123.82580566 C-40.2487926 114.21783309 -40.25760782 104.61039112 -40.285133 95.00243139 C-40.30786568 86.73457997 -40.31100385 78.46688774 -40.29793966 70.19901514 C-40.29016799 65.26913927 -40.28904047 60.33951232 -40.3056221 55.40965271 C-40.32012826 50.77349605 -40.30993355 46.13801959 -40.28115082 41.50193596 C-40.2745727 39.80650394 -40.27638126 38.1110141 -40.28746414 36.41560555 C-40.35451738 25.11079534 -39.20713557 16.44352711 -31.49914551 7.63293457 C-22.53200071 -0.29869442 -11.3252833 -0.06836304 0 0 Z " fill="#CE3B2A" transform="translate(70.6241455078125,86.4920654296875)"/>
<path d="M0 0 C10.29328402 8.68670975 15.98677207 19.2361672 17.38671875 32.7265625 C18.33521044 65.36775944 0.58747425 92.94295591 -21 116 C-28.10839066 123.47534298 -36.05671866 129.37614494 -44.5 135.25 C-45.46856934 135.93118896 -46.43713867 136.61237793 -47.43505859 137.31420898 C-48.35367676 137.93755127 -49.27229492 138.56089355 -50.21875 139.203125 C-51.04310547 139.76676758 -51.86746094 140.33041016 -52.71679688 140.91113281 C-55 142 -55 142 -57.17871094 141.78588867 C-59.69563668 140.69983184 -60.9875663 139.14503383 -62.75 137.0625 C-63.67039062 135.99708984 -63.67039062 135.99708984 -64.609375 134.91015625 C-66 133 -66 133 -66 131 C-63.77498338 129.56225019 -61.55322283 128.23892355 -59.25 126.9375 C-34.84384077 112.67322552 -12.3774592 91.33035806 -3 64 C-3.49886719 64.38671875 -3.99773437 64.7734375 -4.51171875 65.171875 C-15.81064148 73.36714391 -28.34253915 75.5365484 -42 74 C-52.46410219 71.96731808 -61.41627988 66.85556292 -67.875 58.3125 C-74.87928802 47.31758926 -76.92853048 35.55136099 -74.33984375 22.73046875 C-71.07441735 11.71848967 -64.54318197 2.5058275 -54.65234375 -3.40234375 C-37.56942337 -12.5114744 -15.89394129 -11.37004908 0 0 Z " fill="#FDFAF9" transform="translate(162,131)"/>
<path d="M0 0 C0.86625 0.556875 1.7325 1.11375 2.625 1.6875 C11.23567515 10.07157844 13.92785232 19.85786052 14.14044189 31.58638 C14.15232986 33.28192426 14.15893953 34.9775112 14.16113281 36.6730957 C14.16858017 38.07213387 14.16858017 38.07213387 14.17617798 39.49943542 C14.19068326 42.55822505 14.19757818 45.61696301 14.203125 48.67578125 C14.20888128 50.80950419 14.21463895 52.94322714 14.22039795 55.07695007 C14.23087138 59.53608439 14.23673952 63.99520084 14.24023438 68.4543457 C14.24574463 74.17552217 14.26984162 79.89646371 14.29820633 85.61756611 C14.31678916 90.01751918 14.32203574 94.41741478 14.32357025 98.81740379 C14.32660168 100.92779019 14.33464661 103.03817547 14.34775543 105.14852333 C14.36474218 108.09049387 14.36295505 111.03187777 14.35644531 113.97387695 C14.3656601 114.84819366 14.37487488 115.72251038 14.3843689 116.62332153 C14.34293484 122.57765058 14.34293484 122.57765058 12.59960556 124.72468853 C10.55570845 126.35421865 9.43085831 126.36149434 6.83984375 126.328125 C5.6497168 126.32039063 5.6497168 126.32039063 4.43554688 126.3125 C3.61119141 126.291875 2.78683594 126.27125 1.9375 126.25 C0.69516602 126.24226563 0.69516602 126.24226563 -0.57226562 126.234375 C-6.69055451 126.15472274 -6.69055451 126.15472274 -9 125 C-9.495 107.675 -9.495 107.675 -10 90 C-16.27 90.33 -22.54 90.66 -29 91 C-29.04898438 93.35898438 -29.09796875 95.71796875 -29.1484375 98.1484375 C-29.20242103 100.42877645 -29.25973872 102.70900882 -29.31738281 104.98925781 C-29.35570585 106.57609138 -29.39055288 108.16301281 -29.421875 109.75 C-29.46745431 112.02896566 -29.52545838 114.30732468 -29.5859375 116.5859375 C-29.60326431 117.65320572 -29.60326431 117.65320572 -29.62094116 118.74203491 C-29.77225659 123.77225659 -29.77225659 123.77225659 -32 126 C-33.84765625 126.24291992 -33.84765625 126.24291992 -36.0625 126.23046875 C-37.25746094 126.22756836 -37.25746094 126.22756836 -38.4765625 126.22460938 C-39.30929687 126.21236328 -40.14203125 126.20011719 -41 126.1875 C-41.83273437 126.18685547 -42.66546875 126.18621094 -43.5234375 126.18554688 C-49.71913485 126.14043257 -49.71913485 126.14043257 -52 125 C-52.90011584 122.29965249 -53.12715838 120.74930004 -53.13371277 117.9793396 C-53.13797775 117.16363495 -53.14224274 116.3479303 -53.14663696 115.50750732 C-53.14618378 114.61606018 -53.14573059 113.72461304 -53.14526367 112.80615234 C-53.14862228 111.86432098 -53.1519809 110.92248962 -53.15544128 109.95211792 C-53.16496019 106.83004445 -53.1668952 103.7080246 -53.16796875 100.5859375 C-53.17118184 98.41460142 -53.17454596 96.24326556 -53.17805481 94.07192993 C-53.18404925 89.51393126 -53.1858945 84.95595155 -53.18530273 80.39794922 C-53.18520136 74.57077762 -53.19882655 68.74372854 -53.21607494 62.91658592 C-53.22722338 58.42802376 -53.22922103 53.93949088 -53.22869301 49.45091629 C-53.22986987 47.30363164 -53.23427513 45.15634615 -53.24202538 43.00907516 C-53.25187789 39.99603609 -53.24892594 36.98325859 -53.24291992 33.97021484 C-53.24853943 33.09091309 -53.25415894 32.21161133 -53.25994873 31.30566406 C-53.20947515 21.28644617 -51.220256 13.02399762 -45 5 C-32.7542644 -7.06465263 -14.73531487 -9.4827744 0 0 Z M-27 6 C-26.67 6.66 -26.34 7.32 -26 8 C-25.67 7.34 -25.34 6.68 -25 6 C-25.66 6 -26.32 6 -27 6 Z M-32 13 C-32.33 13.66 -32.66 14.32 -33 15 C-32.34 15 -31.68 15 -31 15 C-31.33 14.34 -31.66 13.68 -32 13 Z M-28 21 C-29.70636429 23.77339209 -30.25138678 25.85789284 -30.25878906 29.09423828 C-30.26509338 29.88831085 -30.27139771 30.68238342 -30.27789307 31.5005188 C-30.2738446 32.34855072 -30.26979614 33.19658264 -30.265625 34.0703125 C-30.26753845 34.94775116 -30.2694519 35.82518982 -30.27142334 36.72921753 C-30.27278218 38.58006071 -30.26910677 40.43091351 -30.26074219 42.28173828 C-30.25001271 45.12163535 -30.26066075 47.9609035 -30.2734375 50.80078125 C-30.27211635 52.59895973 -30.26955489 54.39713783 -30.265625 56.1953125 C-30.26967346 57.04739288 -30.27372192 57.89947327 -30.27789307 58.77737427 C-30.45002828 63.36666061 -30.45002828 63.36666061 -28 67 C-25.12657939 67.19856972 -22.37138012 67.27828946 -19.5 67.25 C-18.71496094 67.25773437 -17.92992187 67.26546875 -17.12109375 67.2734375 C-12.58467749 67.44419897 -12.58467749 67.44419897 -9 65 C-8.77521595 62.05702896 -8.67181317 59.21108815 -8.6640625 56.265625 C-8.6540773 54.95945221 -8.6540773 54.95945221 -8.64389038 53.62689209 C-8.63375259 51.7809053 -8.62907371 49.93488178 -8.62939453 48.08886719 C-8.62503834 45.27476751 -8.58877917 42.4622577 -8.55078125 39.6484375 C-8.54490978 37.85417202 -8.5409426 36.0598991 -8.5390625 34.265625 C-8.52469147 33.42791565 -8.51032043 32.5902063 -8.49551392 31.72711182 C-8.53726513 26.34018072 -9.4274626 23.28037503 -13 19 C-18.57994735 15.04003736 -23.01936326 17.0154906 -28 21 Z M6 65 C6.66 65.66 7.32 66.32 8 67 C8 66.34 8 65.68 8 65 C7.34 65 6.68 65 6 65 Z M-37 100 C-37 100.99 -37 101.98 -37 103 C-36.34 103 -35.68 103 -35 103 C-35.33 102.01 -35.66 101.02 -36 100 C-36.33 100 -36.66 100 -37 100 Z " fill="#174B81" transform="translate(792,135)"/>
<path d="M0 0 C1.19133545 -0.00630432 2.3826709 -0.01260864 3.61010742 -0.019104 C4.89763916 -0.01505554 6.1851709 -0.01100708 7.51171875 -0.00683594 C8.8454597 -0.00818331 10.17920018 -0.01012444 11.51293945 -0.01263428 C14.30717651 -0.01558218 17.10128563 -0.01129873 19.89550781 -0.00195312 C23.47683394 0.00944136 27.05786029 0.00288008 30.63917542 -0.00909805 C33.3929673 -0.01632574 36.14668815 -0.01402457 38.90048218 -0.00884247 C40.86310012 -0.0068598 42.82572083 -0.01293286 44.78833008 -0.019104 C46.57533325 -0.00964752 46.57533325 -0.00964752 48.3984375 0 C49.44862061 0.00159119 50.49880371 0.00318237 51.58081055 0.00482178 C54.19921875 0.25878906 54.19921875 0.25878906 57.19921875 2.25878906 C57.55566406 4.3059082 57.55566406 4.3059082 57.52734375 6.79394531 C57.5221875 7.68533203 57.51703125 8.57671875 57.51171875 9.49511719 C57.49109375 10.42775391 57.47046875 11.36039063 57.44921875 12.32128906 C57.4440625 13.25779297 57.43890625 14.19429687 57.43359375 15.15917969 C57.35312214 22.10488567 57.35312214 22.10488567 56.19921875 23.25878906 C53.09836654 23.41920099 50.01734296 23.51842308 46.9140625 23.57519531 C45.98324356 23.59597641 45.05242462 23.61675751 44.09339905 23.63816833 C41.10791693 23.70376837 38.12234391 23.76259708 35.13671875 23.82128906 C33.11782899 23.86446436 31.09894855 23.90807831 29.08007812 23.95214844 C24.11988362 24.06028925 19.15962424 24.15928456 14.19921875 24.25878906 C14.19921875 34.15878906 14.19921875 44.05878906 14.19921875 54.25878906 C18.27910156 54.31486328 18.27910156 54.31486328 22.44140625 54.37207031 C25.06925606 54.41825253 27.69696153 54.46949808 30.32470703 54.52124023 C32.15404525 54.55453932 33.98348745 54.58255563 35.81298828 54.60522461 C38.43957931 54.63867983 41.06521316 54.69098869 43.69140625 54.74707031 C44.92272781 54.7566552 44.92272781 54.7566552 46.17892456 54.76643372 C48.48388672 54.82641602 48.48388672 54.82641602 52.19921875 55.25878906 C54.69539706 59.00305653 54.4598493 61.93253978 54.38671875 66.25878906 C54.38607422 66.98324219 54.38542969 67.70769531 54.38476562 68.45410156 C54.35829631 71.64218353 54.21366665 74.21544535 53.19921875 77.25878906 C48.56817312 78.16924633 44.09744448 78.39157954 39.39453125 78.35644531 C38.67055145 78.35503036 37.94657166 78.35361542 37.20065308 78.35215759 C34.90846468 78.34659982 32.61637718 78.33405539 30.32421875 78.32128906 C28.76172017 78.3162686 27.19922004 78.31170665 25.63671875 78.30761719 C21.82414945 78.2974989 18.01179585 78.2779157 14.19921875 78.25878906 C14.52921875 88.15878906 14.85921875 98.05878906 15.19921875 108.25878906 C19.49566406 108.34966797 19.49566406 108.34966797 23.87890625 108.44238281 C26.64569808 108.50414883 29.41244803 108.56754621 32.17919922 108.63110352 C34.10559379 108.67447907 36.03202746 108.7161522 37.95849609 108.75610352 C40.72375283 108.81374268 43.48881225 108.87745522 46.25390625 108.94238281 C47.11853485 108.95909531 47.98316345 108.9758078 48.87399292 108.99302673 C54.97147534 109.14491736 54.97147534 109.14491736 57.19921875 110.25878906 C57.25712228 113.55038222 57.29278136 116.84184509 57.32421875 120.13378906 C57.34097656 121.0709375 57.35773438 122.00808594 57.375 122.97363281 C57.38144531 123.86953125 57.38789062 124.76542969 57.39453125 125.68847656 C57.40500488 126.51589355 57.41547852 127.34331055 57.42626953 128.19580078 C57.19921875 130.25878906 57.19921875 130.25878906 55.19921875 132.25878906 C52.6184082 132.51275635 52.6184082 132.51275635 49.3125 132.51757812 C48.07781982 132.52388245 46.84313965 132.53018677 45.57104492 132.53668213 C44.21793475 132.53310245 42.86482588 132.52900051 41.51171875 132.52441406 C40.12931246 132.52576081 38.74690662 132.52770142 37.36450195 132.5302124 C34.46593724 132.53316324 31.56749572 132.52886742 28.66894531 132.51953125 C24.94961238 132.50813661 21.23056807 132.51469631 17.51124573 132.52667618 C14.65626848 132.53389594 11.8013599 132.53160634 8.94638062 132.52642059 C7.57481858 132.52508441 6.20325036 132.52673072 4.83169556 132.5313797 C2.91644405 132.53644654 1.00117074 132.52735737 -0.9140625 132.51757812 C-2.00501221 132.51598694 -3.09596191 132.51439575 -4.2199707 132.51275635 C-6.80078125 132.25878906 -6.80078125 132.25878906 -8.80078125 130.25878906 C-9.05525684 128.01925659 -9.05525684 128.01925659 -9.06147766 125.17236328 C-9.06856247 124.09549255 -9.07564728 123.01862183 -9.08294678 121.90911865 C-9.08046936 120.72255676 -9.07799194 119.53599487 -9.07543945 118.31347656 C-9.08055038 117.06794006 -9.08566132 115.82240356 -9.09092712 114.53912354 C-9.10246964 111.11764951 -9.10489295 107.69641722 -9.10236382 104.27494049 C-9.10129606 101.42186272 -9.10617239 98.56880745 -9.11096925 95.71573448 C-9.12207336 88.98723044 -9.12249657 82.25878222 -9.11645508 75.53027344 C-9.11041135 68.58082508 -9.12273423 61.63157899 -9.14402515 54.68216515 C-9.16161609 48.72204481 -9.16764655 42.761989 -9.1643874 36.80184364 C-9.16257061 33.23923878 -9.16525001 29.67677823 -9.17910194 26.11419678 C-9.19396029 22.1440836 -9.18473214 18.17422997 -9.1730957 14.20410156 C-9.18073944 13.01753967 -9.18838318 11.83097778 -9.19625854 10.60845947 C-9.18924423 9.53158875 -9.18222992 8.45471802 -9.17500305 7.34521484 C-9.17517079 6.40574005 -9.17533854 5.46626526 -9.17551136 4.49832153 C-9.05185042 3.75927582 -8.92818949 3.0202301 -8.80078125 2.25878906 C-5.35249217 -0.04007033 -4.06123895 0.00615339 0 0 Z M27.19921875 15.25878906 C27.19921875 15.91878906 27.19921875 16.57878906 27.19921875 17.25878906 C27.85921875 16.92878906 28.51921875 16.59878906 29.19921875 16.25878906 C28.53921875 15.92878906 27.87921875 15.59878906 27.19921875 15.25878906 Z M7.19921875 30.25878906 C7.19921875 31.24878906 7.19921875 32.23878906 7.19921875 33.25878906 C7.85921875 33.25878906 8.51921875 33.25878906 9.19921875 33.25878906 C8.86921875 32.26878906 8.53921875 31.27878906 8.19921875 30.25878906 C7.86921875 30.25878906 7.53921875 30.25878906 7.19921875 30.25878906 Z M21.19921875 66.25878906 C21.52921875 67.24878906 21.85921875 68.23878906 22.19921875 69.25878906 C22.19921875 68.26878906 22.19921875 67.27878906 22.19921875 66.25878906 C21.86921875 66.25878906 21.53921875 66.25878906 21.19921875 66.25878906 Z M48.19921875 122.25878906 C48.85921875 122.91878906 49.51921875 123.57878906 50.19921875 124.25878906 C50.19921875 123.59878906 50.19921875 122.93878906 50.19921875 122.25878906 C49.53921875 122.25878906 48.87921875 122.25878906 48.19921875 122.25878906 Z " fill="#174B81" transform="translate(910.80078125,128.7412109375)"/>
<path d="M0 0 C1.19133545 -0.00630432 2.3826709 -0.01260864 3.61010742 -0.019104 C4.89763916 -0.01505554 6.1851709 -0.01100708 7.51171875 -0.00683594 C8.8454597 -0.00818331 10.17920018 -0.01012444 11.51293945 -0.01263428 C14.30717651 -0.01558218 17.10128563 -0.01129873 19.89550781 -0.00195312 C23.47683394 0.00944136 27.05786029 0.00288008 30.63917542 -0.00909805 C33.3929673 -0.01632574 36.14668815 -0.01402457 38.90048218 -0.00884247 C40.86310012 -0.0068598 42.82572083 -0.01293286 44.78833008 -0.019104 C46.57533325 -0.00964752 46.57533325 -0.00964752 48.3984375 0 C49.44862061 0.00159119 50.49880371 0.00318237 51.58081055 0.00482178 C54.19921875 0.25878906 54.19921875 0.25878906 57.19921875 2.25878906 C57.5715332 4.19824219 57.5715332 4.19824219 57.5625 6.54003906 C57.5615332 7.80267578 57.5615332 7.80267578 57.56054688 9.09082031 C57.54443359 9.97125 57.52832031 10.85167969 57.51171875 11.75878906 C57.51494141 12.63921875 57.51816406 13.51964844 57.52148438 14.42675781 C57.46618907 20.99181874 57.46618907 20.99181874 55.19921875 23.25878906 C52.19035151 23.50484921 49.26704123 23.63259688 46.25390625 23.67285156 C45.36889435 23.69221771 44.48388245 23.71158386 43.572052 23.73153687 C40.73953959 23.79141629 37.90698672 23.83775119 35.07421875 23.88378906 C33.15623207 23.92196117 31.23826268 23.96101244 29.3203125 24.00097656 C24.61337012 24.09878316 19.90661645 24.17828451 15.19921875 24.25878906 C14.86921875 34.15878906 14.53921875 44.05878906 14.19921875 54.25878906 C18.29650391 54.34966797 18.29650391 54.34966797 22.4765625 54.44238281 C25.11095079 54.50412356 27.74529402 54.56753137 30.37963867 54.63110352 C32.21586122 54.67451726 34.05212583 54.71618745 35.88842773 54.75610352 C38.52210186 54.81365075 41.15556296 54.87738905 43.7890625 54.94238281 C45.02812599 54.96745155 45.02812599 54.96745155 46.29222107 54.99302673 C52.08534704 55.14491736 52.08534704 55.14491736 53.19921875 56.25878906 C53.28591307 57.74750766 53.30625369 59.24023406 53.296875 60.73144531 C53.29365234 61.63056641 53.29042969 62.5296875 53.28710938 63.45605469 C53.27454102 64.8743457 53.27454102 64.8743457 53.26171875 66.32128906 C53.25720703 67.27068359 53.25269531 68.22007812 53.24804688 69.19824219 C53.23621985 71.55181971 53.219739 73.90527384 53.19921875 76.25878906 C48.52037822 78.09849643 44.36412393 78.5283546 39.39453125 78.45410156 C38.30856155 78.44985672 38.30856155 78.44985672 37.20065308 78.44552612 C34.90833385 78.43440993 32.61641812 78.40932218 30.32421875 78.38378906 C28.76172443 78.37374816 27.19922393 78.36462426 25.63671875 78.35644531 C21.82394157 78.33620764 18.0120271 78.29704466 14.19921875 78.25878906 C14.52921875 88.15878906 14.85921875 98.05878906 15.19921875 108.25878906 C19.49566406 108.33226562 19.49566406 108.33226562 23.87890625 108.40722656 C26.64572484 108.46119965 29.4124551 108.51852153 32.17919922 108.57617188 C34.10556489 108.61451074 36.03200335 108.64935489 37.95849609 108.68066406 C40.72389793 108.72620851 43.48879644 108.78421943 46.25390625 108.84472656 C47.11853485 108.85627777 47.98316345 108.86782898 48.87399292 108.87973022 C54.97147534 109.03104565 54.97147534 109.03104565 57.19921875 111.25878906 C57.45800781 113.19824219 57.45800781 113.19824219 57.46484375 115.54003906 C57.46871094 116.80267578 57.46871094 116.80267578 57.47265625 118.09082031 C57.46492187 118.97125 57.4571875 119.85167969 57.44921875 120.75878906 C57.46082031 122.07943359 57.46082031 122.07943359 57.47265625 123.42675781 C57.47007812 124.26851563 57.4675 125.11027344 57.46484375 125.97753906 C57.46258789 126.75033203 57.46033203 127.523125 57.45800781 128.31933594 C57.19921875 130.25878906 57.19921875 130.25878906 55.19921875 132.25878906 C52.6184082 132.50602722 52.6184082 132.50602722 49.3125 132.50170898 C48.07781982 132.50478561 46.84313965 132.50786224 45.57104492 132.5110321 C44.21793431 132.50413413 42.86482554 132.49686714 41.51171875 132.48925781 C40.12931359 132.48806597 38.74690761 132.48761286 37.36450195 132.48786926 C34.46593157 132.48630407 31.56748464 132.4780119 28.66894531 132.46459961 C24.94967829 132.44760969 21.23054701 132.44378526 17.51124573 132.44454479 C14.65627746 132.44427312 11.80133899 132.43879239 8.94638062 132.43154335 C7.57482122 132.42835659 6.20325845 132.42638926 4.83169556 132.42564964 C2.91643056 132.4234862 1.00117815 132.41394919 -0.9140625 132.40405273 C-2.55048706 132.39833504 -2.55048706 132.39833504 -4.2199707 132.39250183 C-6.80078125 132.25878906 -6.80078125 132.25878906 -8.80078125 131.25878906 C-8.8707927 114.47384146 -8.92373073 97.68893927 -8.95621777 80.90387917 C-8.97170149 73.11067455 -8.99281959 65.31756053 -9.02709961 57.52441406 C-9.05695609 50.7336812 -9.0763453 43.94301394 -9.08304673 37.15221727 C-9.08696541 33.55490334 -9.09620566 29.95777712 -9.11797142 26.36052322 C-9.14204513 22.34947554 -9.14275368 18.33875634 -9.14135742 14.32763672 C-9.15214325 13.128582 -9.16292908 11.92952728 -9.17404175 10.69413757 C-9.16991776 9.60596237 -9.16579376 8.51778717 -9.1615448 7.39663696 C-9.16431018 6.44719019 -9.16707556 5.49774342 -9.16992474 4.51952553 C-9.04810739 3.77348249 -8.92629004 3.02743946 -8.80078125 2.25878906 C-5.35249217 -0.04007033 -4.06123895 0.00615339 0 0 Z M27.19921875 15.25878906 C26.86921875 15.91878906 26.53921875 16.57878906 26.19921875 17.25878906 C26.85921875 17.25878906 27.51921875 17.25878906 28.19921875 17.25878906 C27.86921875 16.59878906 27.53921875 15.93878906 27.19921875 15.25878906 Z M7.19921875 31.25878906 C7.19921875 31.91878906 7.19921875 32.57878906 7.19921875 33.25878906 C7.85921875 33.25878906 8.51921875 33.25878906 9.19921875 33.25878906 C9.19921875 32.59878906 9.19921875 31.93878906 9.19921875 31.25878906 C8.53921875 31.25878906 7.87921875 31.25878906 7.19921875 31.25878906 Z M21.19921875 66.25878906 C21.19921875 67.24878906 21.19921875 68.23878906 21.19921875 69.25878906 C21.85921875 69.25878906 22.51921875 69.25878906 23.19921875 69.25878906 C22.86921875 68.26878906 22.53921875 67.27878906 22.19921875 66.25878906 C21.86921875 66.25878906 21.53921875 66.25878906 21.19921875 66.25878906 Z M48.19921875 121.25878906 C48.52921875 122.24878906 48.85921875 123.23878906 49.19921875 124.25878906 C49.19921875 123.26878906 49.19921875 122.27878906 49.19921875 121.25878906 C48.86921875 121.25878906 48.53921875 121.25878906 48.19921875 121.25878906 Z " fill="#174B81" transform="translate(509.80078125,128.7412109375)"/>
<path d="M0 0 C0.86625 0.556875 1.7325 1.11375 2.625 1.6875 C12.01007695 10.82560124 13.98519903 21.42158641 14.23046875 34.01953125 C14 36 14 36 12 39 C10.06054688 39.37231445 10.06054688 39.37231445 7.71875 39.36328125 C6.87699219 39.36263672 6.03523437 39.36199219 5.16796875 39.36132812 C4.28753906 39.34521484 3.40710938 39.32910156 2.5 39.3125 C1.17935547 39.31733398 1.17935547 39.31733398 -0.16796875 39.32226562 C-6.73302968 39.26697032 -6.73302968 39.26697032 -9 37 C-9.34862091 34.01245116 -9.44287577 31.04790327 -9.55859375 28.04296875 C-10.14229626 24.01903725 -11.52717874 21.1572167 -14.75 18.625 C-18.14112087 17.68302198 -20.60991203 18.15247801 -24 19 C-26.3181362 20.89111111 -27.66914015 22.33828031 -29 25 C-29.15112939 27.61860735 -29.23133862 30.19290882 -29.25 32.8125 C-29.270625 33.52470703 -29.29125 34.23691406 -29.3125 34.97070312 C-29.34609352 39.51002703 -28.90590897 42.45924155 -26 46 C-22.84212748 48.20777668 -19.6490782 48.39871552 -15.875 48.8125 C-5.889206 50.28856361 0.86775159 53.75935193 7.30859375 61.60546875 C11.54814565 67.60742097 13.7015387 73.6293036 14 81 C14.05994141 82.37671875 14.05994141 82.37671875 14.12109375 83.78125 C14.39562257 96.31268339 12.56367662 107.74836826 3.97265625 117.328125 C-3.29672182 123.48910285 -12.14056168 126.36686465 -21.54296875 126.2109375 C-30.48185254 125.44352935 -38.65712841 121.66526817 -44.7890625 115.078125 C-50.73437542 107.52201301 -53.11760873 99.97336735 -53.25 90.375 C-53.27578125 89.24835938 -53.3015625 88.12171875 -53.328125 86.9609375 C-53 84 -53 84 -51.72363281 82.33764648 C-48.74651818 80.02721999 -45.10861852 80.61219494 -41.5 80.6875 C-40.34177734 80.68266602 -40.34177734 80.68266602 -39.16015625 80.67773438 C-35.27568334 80.71476141 -33.29682149 80.80211901 -30 83 C-29.59375 85.64453125 -29.59375 85.64453125 -29.5 88.8125 C-29.36185716 93.4460412 -28.78419602 96.23739547 -26 100 C-22.2626144 102.4915904 -20.42668417 102.45793285 -16 102 C-12.61060444 99.86320715 -11.27417443 98.8225233 -10 95 C-9.87837812 92.56473397 -9.82455871 90.12577133 -9.8125 87.6875 C-9.79832031 86.39199219 -9.78414062 85.09648437 -9.76953125 83.76171875 C-10.01823112 78.62409951 -10.01823112 78.62409951 -12 74 C-14.94738618 72.7415877 -17.96657084 72.3282489 -21.125 71.875 C-32.68416683 70.0621493 -40.57309597 66.38596927 -48 57 C-54.11272995 45.68137367 -55.33624909 29.41542784 -51.80859375 17.0078125 C-48.14554766 7.91213283 -42.72427981 1.37459228 -33.890625 -3.05859375 C-22.7623933 -7.56595892 -10.14477449 -6.52857497 0 0 Z M6 26 C5.67 26.66 5.34 27.32 5 28 C5.66 28 6.32 28 7 28 C6.67 27.34 6.34 26.68 6 26 Z M6 89 C5.67 89.66 5.34 90.32 5 91 C5.66 91 6.32 91 7 91 C6.67 90.34 6.34 89.68 6 89 Z M-46 91 C-45 93 -45 93 -45 93 Z " fill="#174B81" transform="translate(633,135)"/>
<path d="M0 0 C0.74889999 -0.00191345 1.49779999 -0.0038269 2.26939392 -0.00579834 C3.85725235 -0.00715942 5.44512193 -0.00346831 7.03295898 0.00488281 C9.43174186 0.01547878 11.82975769 0.0050402 14.22851562 -0.0078125 C27.4010073 -0.02069362 40.40553165 0.5318869 50.40234375 10.265625 C59.40408302 21.03556306 60.37473756 33.76015543 59.40234375 47.265625 C57.85385084 58.51800683 53.08945835 65.60137917 44.47265625 72.79296875 C36.88537569 78.18995889 28.12036394 78.31126385 19.12890625 78.28515625 C17.86900879 78.28233643 16.60911133 78.2795166 15.31103516 78.27661133 C14.35116699 78.27298584 13.39129883 78.26936035 12.40234375 78.265625 C12.40678497 78.89789505 12.4112262 79.5301651 12.415802 80.18159485 C12.45998492 86.75116724 12.49018919 93.32069755 12.51220703 99.89038086 C12.5222762 102.34352329 12.53593236 104.79665369 12.55322266 107.24975586 C12.57743054 110.77200283 12.58881763 114.29409139 12.59765625 117.81640625 C12.60797882 118.91648514 12.61830139 120.01656403 12.62893677 121.14997864 C12.62908783 122.17081039 12.62923889 123.19164215 12.62939453 124.2434082 C12.63383575 125.14275589 12.63827698 126.04210358 12.64285278 126.96870422 C12.40234375 129.265625 12.40234375 129.265625 10.40234375 132.265625 C8.46289062 132.62207031 8.46289062 132.62207031 6.12109375 132.59375 C5.27933594 132.58859375 4.43757812 132.5834375 3.5703125 132.578125 C2.24966797 132.5471875 2.24966797 132.5471875 0.90234375 132.515625 C0.02191406 132.51046875 -0.85851562 132.5053125 -1.765625 132.5 C-8.28873749 132.42008438 -8.28873749 132.42008438 -10.59765625 131.265625 C-10.6676677 114.48067739 -10.72060573 97.69577521 -10.75309277 80.9107151 C-10.76857649 73.11751049 -10.78969459 65.32439647 -10.82397461 57.53125 C-10.85383109 50.74051714 -10.8732203 43.94984988 -10.87992173 37.15905321 C-10.88384041 33.56173928 -10.89308066 29.96461306 -10.91484642 26.36735916 C-10.93892013 22.35631148 -10.93962868 18.34559228 -10.93823242 14.33447266 C-10.94901825 13.13541794 -10.95980408 11.93636322 -10.97091675 10.70097351 C-10.96679276 9.61279831 -10.96266876 8.52462311 -10.9584198 7.4034729 C-10.96118518 6.45402613 -10.96395056 5.50457935 -10.96679974 4.52636147 C-10.84498239 3.78031843 -10.72316504 3.0342754 -10.59765625 2.265625 C-6.94640301 -0.16854383 -4.22062106 -0.02377398 0 0 Z M12.40234375 24.265625 C12.31450833 26.48417764 12.29539766 28.70550996 12.3046875 30.92578125 C12.30610245 31.59024765 12.3075174 32.25471405 12.30897522 32.9393158 C12.31458857 35.06896399 12.32714321 37.19850839 12.33984375 39.328125 C12.34485704 40.76887869 12.34942024 42.20963403 12.35351562 43.65039062 C12.3645623 47.18883602 12.38183583 50.72722039 12.40234375 54.265625 C17.04851103 56.58870864 23.34592043 55.6850783 28.40234375 55.265625 C31.65783992 54.1436415 33.56077615 52.50011963 35.5234375 49.62109375 C36.79127927 46.22327781 36.73114706 42.90507084 36.71484375 39.328125 C36.73095703 38.62494141 36.74707031 37.92175781 36.76367188 37.19726562 C36.76789628 32.68982813 36.2817991 29.77241267 33.40234375 26.265625 C29.38084601 22.98568003 25.6517682 22.86150016 20.65234375 23.015625 C19.96785156 23.02078125 19.28335938 23.0259375 18.578125 23.03125 C15.20321824 22.80947391 15.20321824 22.80947391 12.40234375 24.265625 Z M5.40234375 24.265625 C5.73234375 24.925625 6.06234375 25.585625 6.40234375 26.265625 C6.73234375 25.605625 7.06234375 24.945625 7.40234375 24.265625 C6.74234375 24.265625 6.08234375 24.265625 5.40234375 24.265625 Z M50.40234375 43.265625 C50.40234375 43.925625 50.40234375 44.585625 50.40234375 45.265625 C51.06234375 44.935625 51.72234375 44.605625 52.40234375 44.265625 C51.74234375 43.935625 51.08234375 43.605625 50.40234375 43.265625 Z " fill="#174B81" transform="translate(829.59765625,128.734375)"/>
<path d="M0 0 C6.97211492 7.63982303 9.1058023 15.67523288 8.87890625 25.859375 C8.86988281 26.63861328 8.86085938 27.41785156 8.8515625 28.22070312 C8.82824316 30.12122947 8.79238211 32.02159508 8.75390625 33.921875 C6.48317546 35.0572404 5.21107346 35.05079912 2.69140625 35.0546875 C1.89476562 35.05597656 1.098125 35.05726563 0.27734375 35.05859375 C-0.97175781 35.05279297 -0.97175781 35.05279297 -2.24609375 35.046875 C-3.07882812 35.05074219 -3.9115625 35.05460937 -4.76953125 35.05859375 C-5.56617188 35.05730469 -6.3628125 35.05601562 -7.18359375 35.0546875 C-7.91449219 35.05355957 -8.64539063 35.05243164 -9.3984375 35.05126953 C-11.24609375 34.921875 -11.24609375 34.921875 -13.24609375 33.921875 C-14.24057824 30.93842153 -14.40897932 28.66740445 -14.55859375 25.546875 C-14.87400702 21.98788349 -15.20057818 20.00940494 -16.87109375 16.796875 C-20.06278697 14.2771172 -22.20019355 13.921875 -26.24609375 13.921875 C-29.16955932 15.28615893 -30.97360284 16.64938409 -33.24609375 18.921875 C-33.56832293 22.09207979 -33.56832293 22.09207979 -33.53662109 25.87841797 C-33.54333832 26.59404907 -33.55005554 27.30968018 -33.55697632 28.04699707 C-33.57601792 30.41942231 -33.5798837 32.79156554 -33.58203125 35.1640625 C-33.58845542 36.81072101 -33.59518349 38.45737835 -33.60220337 40.10403442 C-33.6141919 43.5591293 -33.61788263 47.01412407 -33.61669922 50.46923828 C-33.61649605 54.89701296 -33.64378807 59.32414559 -33.67824364 63.75176811 C-33.70048151 67.15413358 -33.70453771 70.55634386 -33.70347977 73.95877457 C-33.70584082 75.59106787 -33.7146927 77.22336513 -33.7301445 78.85558701 C-33.74974058 81.13969583 -33.74399271 83.42241173 -33.73193359 85.70654297 C-33.73620865 87.65607376 -33.73620865 87.65607376 -33.74057007 89.64498901 C-33.16409311 93.46529181 -32.26302265 94.60075134 -29.24609375 96.921875 C-26.46621215 98.3118158 -24.32746115 98.10675704 -21.24609375 97.921875 C-17.9034417 96.71480621 -17.29904809 96.00130651 -15.24609375 92.921875 C-14.82333748 90.05421103 -14.82333748 90.05421103 -14.68359375 86.921875 C-14.48613723 83.63361941 -14.29063039 81.05548491 -13.24609375 77.921875 C-9.97797573 76.28781599 -6.39609968 76.73733743 -2.80859375 76.734375 C-2.03193359 76.72212891 -1.25527344 76.70988281 -0.45507812 76.69726562 C3.46622934 76.68713305 5.4200937 76.6993333 8.75390625 78.921875 C9.09250106 81.50556696 9.22958862 83.77540547 9.19140625 86.359375 C9.18165771 87.0807666 9.17190918 87.8021582 9.16186523 88.54541016 C8.8202544 98.94659146 5.51031251 106.23020085 -1.73828125 113.75390625 C-9.05863959 120.08225341 -17.05017745 122.27415459 -26.5625 122.1328125 C-36.56390731 121.34667568 -43.73143014 116.84241843 -50.49609375 109.671875 C-58.03602719 99.97423794 -57.84127919 89.53494581 -57.77734375 77.796875 C-57.78004385 76.04150173 -57.78393056 74.28612992 -57.78894043 72.53076172 C-57.79481115 68.86606494 -57.78635142 65.20176027 -57.76757812 61.53710938 C-57.74478987 56.86348246 -57.75792607 52.19077467 -57.78186798 47.5171814 C-57.79639199 43.89665936 -57.79168989 40.2763516 -57.78135681 36.65582275 C-57.77870772 34.93361296 -57.78189454 33.21138306 -57.79127502 31.48919678 C-57.84550574 18.73756463 -56.78503685 8.59236829 -47.65625 -1.03125 C-33.38746682 -13.14930897 -13.61011055 -12.86774088 0 0 Z M0.75390625 21.921875 C1.75390625 23.921875 1.75390625 23.921875 1.75390625 23.921875 Z M-51.24609375 52.921875 C-50.24609375 54.921875 -50.24609375 54.921875 -50.24609375 54.921875 Z M-42.24609375 84.921875 C-42.24609375 85.581875 -42.24609375 86.241875 -42.24609375 86.921875 C-41.58609375 86.921875 -40.92609375 86.921875 -40.24609375 86.921875 C-40.24609375 86.261875 -40.24609375 85.601875 -40.24609375 84.921875 C-40.90609375 84.921875 -41.56609375 84.921875 -42.24609375 84.921875 Z M-8.24609375 86.921875 C-7.58609375 87.581875 -6.92609375 88.241875 -6.24609375 88.921875 C-6.24609375 88.261875 -6.24609375 87.601875 -6.24609375 86.921875 C-6.90609375 86.921875 -7.56609375 86.921875 -8.24609375 86.921875 Z " fill="#174B81" transform="translate(717.24609375,139.078125)"/>
<path d="M0 0 C26.07 0.33 52.14 0.66 79 1 C79 6.94 79 12.88 79 19 C75.37 19 71.74 19 68 19 C67.505 17.515 67.505 17.515 67 16 C63.64120464 14.25831473 60.77809337 13.74055029 57.02612305 13.68115234 C55.58519539 13.65134781 55.58519539 13.65134781 54.11515808 13.62094116 C53.0910231 13.60938995 52.06688812 13.59783875 51.01171875 13.5859375 C49.95338333 13.56657135 48.89504791 13.5472052 47.80464172 13.5272522 C44.43234252 13.46758752 41.06000894 13.42112307 37.6875 13.375 C35.39777177 13.33680819 33.10805772 13.29775576 30.81835938 13.2578125 C25.21231437 13.16028073 19.60641608 13.08060681 14 13 C14 22.57 14 32.14 14 42 C17.939375 41.896875 21.87875 41.79375 25.9375 41.6875 C44.39424772 41.51348845 61.1307131 45.73336011 74.93359375 58.74609375 C85.73491123 70.52749296 88.92534276 83.58414108 88.3828125 99.1484375 C87.54242462 112.75849283 81.17521579 126.78176228 71 136 C59.1058583 145.0551344 47.17517787 148.19874707 32.5 148.1875 C31.42298828 148.18669434 30.34597656 148.18588867 29.23632812 148.18505859 C18.78281121 148.10462266 9.09108369 146.7701014 -1 144 C-0.54705135 142.24859857 -0.08741252 140.49892656 0.375 138.75 C0.63023437 137.77546875 0.88546875 136.8009375 1.1484375 135.796875 C1.89598509 133.34162697 2.77123817 131.24382595 4 129 C5.00675781 129.28875 6.01351563 129.5775 7.05078125 129.875 C23.21486187 134.24819211 39.19365873 135.6350965 54.48046875 127.71484375 C62.90877091 122.64656824 68.23803833 115.35998123 71 106 C73.00201279 95.76275728 73.50236488 85.18615153 68 76 C60.71098962 65.67110281 50.56993873 60.04765405 38.37109375 57.4375 C33.84093192 56.84957633 29.37588795 56.81580441 24.8125 56.8125 C23.91080078 56.80025391 23.00910156 56.78800781 22.08007812 56.77539062 C21.21447266 56.77345703 20.34886719 56.77152344 19.45703125 56.76953125 C18.67303955 56.76542236 17.88904785 56.76131348 17.08129883 56.75708008 C14.69370996 56.87594211 14.69370996 56.87594211 12 59 C11.67 59.99 11.34 60.98 11 62 C7.7 62 4.4 62 1 62 C0.67 41.54 0.34 21.08 0 0 Z " fill="#FEFBFB" transform="translate(335,123)"/>
<path d="M0 0 C7.70026807 4.07661251 13.4142997 10.91149228 16.34375 19.09375 C18.83518751 30.12725898 17.29299359 40.40452995 11.8125 50.125 C7.60056178 56.42404791 2.09399191 61.53280048 -5.328125 63.5546875 C-16.54279596 65.42379933 -25.51574698 64.47043165 -35 58 C-42.20183163 52.40292433 -46.24761134 44.90797566 -48 36 C-48.97678928 24.72252374 -46.94430553 15.75060289 -39.83984375 6.8203125 C-28.92190293 -3.98172661 -13.89821077 -5.85855235 0 0 Z " fill="#CE3C2B" transform="translate(294,192)"/>
<path d="M0 0 C10.31320225 7.01352977 17.34978358 16.88765467 19.98046875 29.234375 C21.20795827 45.47071367 19.48196654 58.27556783 9.3046875 71.39453125 C2.24577369 79.23944831 -9.46188038 85.36628386 -20.00268555 86.43554688 C-22.11741734 86.53742556 -24.21495895 86.56338472 -26.33203125 86.546875 C-27.45351563 86.53950317 -27.45351563 86.53950317 -28.59765625 86.53198242 C-41.97959813 86.24932659 -52.13844954 80.59966314 -61.7890625 71.5625 C-71.14014396 61.80200166 -73.36890096 50.0494978 -73.23046875 36.8984375 C-72.66148332 27.0149498 -69.60833876 19.32541 -64.01953125 11.234375 C-63.44203125 10.3475 -62.86453125 9.460625 -62.26953125 8.546875 C-46.45557826 -7.70635446 -19.66864003 -11.50093828 0 0 Z M-51.01953125 16.234375 C-52.78976517 18.56923699 -52.78976517 18.56923699 -54.20703125 21.109375 C-54.69558594 21.93179688 -55.18414062 22.75421875 -55.6875 23.6015625 C-60.20222992 32.52510492 -60.28098183 41.87079417 -57.58203125 51.421875 C-54.27652763 60.14057271 -48.41925089 66.23056097 -40.39453125 70.859375 C-31.85938796 74.69148015 -22.39455448 74.77182557 -13.58203125 71.671875 C-4.3453686 67.26033463 0.99614817 60.58167381 4.98046875 51.234375 C7.30498436 42.57413696 7.3058658 31.74925293 3.43359375 23.58203125 C-1.9973078 14.80791342 -8.31086094 9.05114836 -18.40625 6.671875 C-31.22302982 4.52616597 -41.29683994 7.559735 -51.01953125 16.234375 Z " fill="#FDFAFA" transform="translate(305.01953125,182.765625)"/>
<path d="M0 0 C1.11157471 0.00858032 1.11157471 0.00858032 2.24560547 0.01733398 C10.90933598 0.29550998 18.36279134 2.87985659 24.8125 8.8125 C32.17803577 17.02237767 33.61654803 26.38578835 33.3359375 37.08984375 C33.03861784 41.02481194 32.302507 43.32738556 29.5 46.25 C27.29296875 47.9609375 27.29296875 47.9609375 24.8125 49.5 C23.92175781 50.06976563 23.03101563 50.63953125 22.11328125 51.2265625 C11.00812817 57.76264981 0.83632779 58.55277991 -11.9375 57.0625 C-19.09579513 53.62101195 -25.86199808 47.7482577 -28.625 40.13671875 C-30.70361525 30.39320976 -29.99384332 21.78026609 -25.02734375 13.09765625 C-18.82270232 4.33738757 -10.74454515 -0.09700789 0 0 Z " fill="#CE3C2B" transform="translate(131.1875,134.5)"/>
<path d="M0 0 C0 9.9 0 19.8 0 30 C7.26 30 14.52 30 22 30 C22 33.3 22 36.6 22 40 C14.41 40 6.82 40 -1 40 C-1.02259918 48.01471379 -1.04094303 56.02940276 -1.05181217 64.04413986 C-1.05702901 67.76576675 -1.0641049 71.48737069 -1.07543945 75.20898438 C-1.08631093 78.80106074 -1.09228588 82.39311505 -1.09487724 85.9852066 C-1.0967238 87.35511879 -1.10032966 88.72502977 -1.10573006 90.09493256 C-1.11299688 92.01477377 -1.11340854 93.93463722 -1.11352539 95.85449219 C-1.11685631 97.49330353 -1.11685631 97.49330353 -1.12025452 99.16522217 C-1.01596014 101.62376927 -0.71450164 103.65762549 0 106 C0.7425 105.690625 1.485 105.38125 2.25 105.0625 C4.50692176 104.1905075 6.6450153 103.52332993 9 103 C12 109.625 12 109.625 12 113 C9.730384 114.14829977 7.45939222 115.29371978 5.1875 116.4375 C4.54490234 116.76298828 3.90230469 117.08847656 3.24023438 117.42382812 C-2.10130752 120.10843727 -5.9535266 121.5398637 -12 121 C-14.92551612 118.36703549 -15.39749789 115.78494918 -16 112 C-16.0916986 109.88954809 -16.13066228 107.77650452 -16.1328125 105.6640625 C-16.13571289 103.75258423 -16.13571289 103.75258423 -16.13867188 101.80249023 C-16.13454577 100.40999215 -16.12997671 99.01749531 -16.125 97.625 C-16.12411377 96.91900665 -16.12322754 96.21301331 -16.12231445 95.48562622 C-16.09543507 76.98407968 -15.55539275 58.49191981 -15 40 C-19.29 40 -23.58 40 -28 40 C-28 36.7 -28 33.4 -28 30 C-23.38 30 -18.76 30 -14 30 C-14 22.08 -14 14.16 -14 6 C-2.25 0 -2.25 0 0 0 Z " fill="#FDF9F8" transform="translate(213,148)"/>
</svg>
